<svg width="26" height="15" viewBox="0 0 26 15" fill="none" xmlns="http://www.w3.org/2000/svg">
  <path d="M20.5533 3.65257C20.1112 3.65257 19.6819 3.70881 19.2703 3.81238C18.0342 1.53638 15.6894 0 13 0C10.3105 0 7.96579 1.53643 6.72962 3.81238C6.31804 3.70881 5.88874 3.65257 5.44663 3.65257C2.43851 3.65257 0 6.19275 0 9.32629C0 12.4598 2.43851 15 5.44663 15H11.3817V11.6286H8.67753V11.5924L12.9487 6.94602H13.0513L17.3225 11.5924V11.6286H14.6183V15H20.5534C23.5614 15 26 12.4598 26 9.32629C26 6.19275 23.5614 3.65257 20.5533 3.65257Z" fill="#807CFA"/>
</svg>
