<svg width="27" height="26" viewBox="0 0 27 26" fill="none" xmlns="http://www.w3.org/2000/svg">
  <path d="M8.37931 5.37927H5.6849C5.02904 5.37928 4.40361 5.64573 3.96248 6.1131L0 10.3103L13.1895 11.6551L27 10.3103L23.0375 6.1131C22.5964 5.64573 21.971 5.37928 21.3151 5.37927H18.6207" fill="#807CFA"/>
  <path d="M8.84467 0H18.155C18.4121 0 18.6205 0.2007 18.6205 0.448276V8.06897H8.37915V0.448276C8.37915 0.2007 8.58757 0 8.84467 0Z" fill="#D7D5E6"/>
  <path d="M19.5519 8.51728H7.44843C7.19133 8.51728 6.98291 8.31658 6.98291 8.069C6.98291 7.82143 7.19133 7.62073 7.44843 7.62073H19.5519C19.809 7.62073 20.0174 7.82143 20.0174 8.069C20.0174 8.31658 19.809 8.51728 19.5519 8.51728Z" fill="#807CFA"/>
  <path d="M17.2243 21.5173H9.77606C9.51897 21.5173 9.31055 21.3166 9.31055 21.069C9.31055 20.8214 9.51897 20.6207 9.77606 20.6207H17.2243C17.4814 20.6207 17.6899 20.8214 17.6899 21.069C17.6899 21.3166 17.4814 21.5173 17.2243 21.5173Z" fill="black"/>
  <path d="M20.4828 21.069H24.6724C25.2897 21.069 25.8818 20.8329 26.3183 20.4126C26.7548 19.9922 27 19.4221 27 18.8277V10.3104H0V18.8277C0 19.4221 0.245227 19.9922 0.681734 20.4126C1.11824 20.8329 1.71027 21.069 2.32759 21.069H6.51724" fill="#4482C3"/>
  <path d="M6.51752 21.0691H6.052V17.0346C6.052 15.054 7.71936 13.4484 9.77614 13.4484H17.2244C19.2812 13.4484 20.9486 15.054 20.9486 17.0346V21.0691H20.483" fill="#807CFA"/>
  <path d="M17.2243 21.5173H9.77606C9.51897 21.5173 9.31055 21.3166 9.31055 21.069C9.31055 20.8214 9.51897 20.6207 9.77606 20.6207H17.2243C17.4814 20.6207 17.6899 20.8214 17.6899 21.069C17.6899 21.3166 17.4814 21.5173 17.2243 21.5173Z" fill="black"/>
  <path d="M24.2069 14.3447C24.7211 14.3447 25.1379 13.9433 25.1379 13.4482C25.1379 12.953 24.7211 12.5516 24.2069 12.5516C23.6927 12.5516 23.2759 12.953 23.2759 13.4482C23.2759 13.9433 23.6927 14.3447 24.2069 14.3447Z" fill="#D7D5E6"/>
  <path d="M24.207 16.5861C24.4641 16.5861 24.6725 16.3854 24.6725 16.1379C24.6725 15.8903 24.4641 15.6896 24.207 15.6896C23.9499 15.6896 23.7415 15.8903 23.7415 16.1379C23.7415 16.3854 23.9499 16.5861 24.207 16.5861Z" fill="#CC4B4C"/>
  <path d="M24.207 17.9311C24.4641 17.9311 24.6725 17.7304 24.6725 17.4828C24.6725 17.2352 24.4641 17.0345 24.207 17.0345C23.9499 17.0345 23.7415 17.2352 23.7415 17.4828C23.7415 17.7304 23.9499 17.9311 24.207 17.9311Z" fill="#4FBA6F"/>
  <path d="M24.207 19.2758C24.4641 19.2758 24.6725 19.0751 24.6725 18.8275C24.6725 18.58 24.4641 18.3793 24.207 18.3793C23.9499 18.3793 23.7415 18.58 23.7415 18.8275C23.7415 19.0751 23.9499 19.2758 24.207 19.2758Z" fill="#4FBA6F"/>
  <path d="M8.84485 17.4827H18.1552C18.6694 17.4827 19.0862 17.8841 19.0862 18.3792V20.1723H7.91382V18.3792C7.91382 17.8841 8.33066 17.4827 8.84485 17.4827Z" fill="#D7D5E6"/>
  <path d="M1.862 13.0001C1.6049 13.0001 1.39648 12.7994 1.39648 12.5518V12.1035C1.39648 11.856 1.6049 11.6553 1.862 11.6553C2.1191 11.6553 2.32752 11.856 2.32752 12.1035V12.5518C2.32752 12.7994 2.1191 13.0001 1.862 13.0001Z" fill="#807CFA"/>
  <path d="M1.862 17.4828C1.6049 17.4828 1.39648 17.2821 1.39648 17.0345V14.3449C1.39648 14.0973 1.6049 13.8966 1.862 13.8966C2.1191 13.8966 2.32752 14.0973 2.32752 14.3449V17.0345C2.32752 17.2821 2.1191 17.4828 1.862 17.4828Z" fill="#807CFA"/>
  <path d="M18.9184 24.6553H22.3446C22.521 24.6553 22.6821 24.5594 22.761 24.4075C22.8399 24.2556 22.8228 24.0739 22.717 23.9381L20.4826 21.0691L19.086 19.276H7.91359L6.51704 21.0691L4.28256 23.9381C4.17676 24.0739 4.15975 24.2556 4.2386 24.4075C4.31746 24.5594 4.47865 24.6553 4.65497 24.6553H8.08118" fill="#4482C3"/>
  <path d="M18.8288 26.0001H8.1712C8.01293 26.0001 7.86552 25.9226 7.77987 25.7944C7.69422 25.6663 7.68206 25.505 7.74758 25.3663L9.65201 21.3318C9.72755 21.1718 9.89316 21.0691 10.0756 21.0691H16.9243C17.1068 21.0691 17.2724 21.1718 17.3479 21.3318L19.2524 25.3663C19.3179 25.505 19.3057 25.6663 19.2201 25.7944C19.1344 25.9226 18.987 26.0001 18.8288 26.0001Z" fill="#D7D5E6"/>
  <path d="M15.362 23.3104H11.6379C11.3808 23.3104 11.1724 23.1097 11.1724 22.8621C11.1724 22.6145 11.3808 22.4138 11.6379 22.4138H15.362C15.6191 22.4138 15.8275 22.6145 15.8275 22.8621C15.8275 23.1097 15.6191 23.3104 15.362 23.3104Z" fill="#807CFA"/>
  <path d="M16.2932 24.6551H10.707C10.4499 24.6551 10.2415 24.4544 10.2415 24.2068C10.2415 23.9592 10.4499 23.7585 10.707 23.7585H16.2932C16.5503 23.7585 16.7587 23.9592 16.7587 24.2068C16.7587 24.4544 16.5503 24.6551 16.2932 24.6551Z" fill="#807CFA"/>
</svg>
