<svg width="37" height="37" viewBox="0 0 37 37" fill="none" xmlns="http://www.w3.org/2000/svg">
  <path d="M18.6632 22.4275L34.8476 4.66311L36.9842 6.60976L18.8114 26.5565L8.90448 17.1388L10.8963 15.0437L18.6632 22.4275ZM35.8618 12.0867L33.6077 14.5686C33.9349 15.825 34.1094 17.1425 34.1094 18.5C34.1094 27.1069 27.1069 34.1094 18.5 34.1094C9.89305 34.1094 2.89062 27.1069 2.89062 18.5C2.89062 9.89305 9.89305 2.89062 18.5 2.89062C22.4873 2.89062 26.1294 4.39409 28.8916 6.86298L30.8402 4.71731C27.4432 1.66832 23.0999 0 18.5 0C13.5586 0 8.91267 1.92435 5.41851 5.41851C1.92435 8.91267 0 13.5586 0 18.5C0 23.4414 1.92435 28.0873 5.41851 31.5815C8.91267 35.0756 13.5586 37 18.5 37C23.4414 37 28.0873 35.0756 31.5815 31.5815C35.0756 28.0873 37 23.4414 37 18.5C37 16.2761 36.609 14.1127 35.8618 12.0867Z" fill="#2AF598"/>
</svg>
