<svg width="12" height="12" viewBox="0 0 12 12" fill="none" xmlns="http://www.w3.org/2000/svg">
  <path d="M10.9218 4.1251H9V0.844508C9 0.549949 8.8504 0.28164 8.59983 0.126767C8.34931 -0.0280824 8.04243 -0.0419103 7.77895 0.0898301C7.77557 0.0915176 7.77224 0.0932519 7.76891 0.0950331L0.813228 3.83847C0.311696 4.10839 0.00012207 4.62992 0.00012207 5.19947V5.20322V5.43759V10.9219C0.00012207 11.5163 0.483772 12 1.07823 12H10.9218C11.5163 12 12 11.5163 12 10.9219V5.20322C12 4.60875 11.5163 4.1251 10.9218 4.1251ZM8.11761 0.759079C8.15481 0.74197 8.18584 0.75261 8.20553 0.764774C8.22582 0.777313 8.24999 0.801336 8.24999 0.844531V4.12513H1.86319L8.11761 0.759079ZM11.25 10.9219C11.25 11.1028 11.1028 11.25 10.9218 11.25H1.07823C0.897297 11.25 0.750112 11.1028 0.750112 10.9219V5.43759V5.20322C0.750112 5.02228 0.897297 4.87509 1.07823 4.87509H10.9218C11.1028 4.87509 11.25 5.02228 11.25 5.20322V10.9219Z" fill="#D0CAE0"/>
</svg>
