<svg width="12" height="12" viewBox="0 0 12 12" fill="none" xmlns="http://www.w3.org/2000/svg">
  <g clip-path="url(#clip0)">
    <path d="M10.4673 2.91544L7.65487 0.103008C7.58923 0.0373359 7.49963 0 7.40625 0H2.48438C1.90282 0 1.42969 0.473133 1.42969 1.05469V10.9453C1.42969 11.5269 1.90282 12 2.48438 12H9.51562C10.0972 12 10.5703 11.5269 10.5703 10.9453V3.16406C10.5703 3.0682 10.5301 2.97818 10.4673 2.91544ZM7.75781 1.2003L9.37001 2.8125H8.10938C7.91552 2.8125 7.75781 2.65479 7.75781 2.46094V1.2003ZM9.51562 11.2969H2.48438C2.29052 11.2969 2.13281 11.1392 2.13281 10.9453V1.05469C2.13281 0.860836 2.29052 0.703125 2.48438 0.703125H7.05469V2.46094C7.05469 3.04249 7.52782 3.51562 8.10938 3.51562H9.86719V10.9453C9.86719 11.1392 9.70948 11.2969 9.51562 11.2969Z" fill="#D0CAE0"/>
    <path d="M8.10938 4.96875H3.89062C3.69647 4.96875 3.53906 5.12616 3.53906 5.32031C3.53906 5.51447 3.69647 5.67188 3.89062 5.67188H8.10938C8.30353 5.67188 8.46094 5.51447 8.46094 5.32031C8.46094 5.12616 8.30353 4.96875 8.10938 4.96875Z" fill="#D0CAE0"/>
    <path d="M8.10938 6.375H3.89062C3.69647 6.375 3.53906 6.53241 3.53906 6.72656C3.53906 6.92072 3.69647 7.07812 3.89062 7.07812H8.10938C8.30353 7.07812 8.46094 6.92072 8.46094 6.72656C8.46094 6.53241 8.30353 6.375 8.10938 6.375Z" fill="#D0CAE0"/>
    <path d="M8.10938 7.78125H3.89062C3.69647 7.78125 3.53906 7.93866 3.53906 8.13281C3.53906 8.32697 3.69647 8.48438 3.89062 8.48438H8.10938C8.30353 8.48438 8.46094 8.32697 8.46094 8.13281C8.46094 7.93866 8.30353 7.78125 8.10938 7.78125Z" fill="#D0CAE0"/>
    <path d="M6.70312 9.1875H3.89062C3.69647 9.1875 3.53906 9.34491 3.53906 9.53906C3.53906 9.73322 3.69647 9.89062 3.89062 9.89062H6.70312C6.89728 9.89062 7.05469 9.73322 7.05469 9.53906C7.05469 9.34491 6.89728 9.1875 6.70312 9.1875Z" fill="#D0CAE0"/>
  </g>
  <defs>
    <clipPath id="clip0">
      <rect width="12" height="12" fill="white"/>
    </clipPath>
  </defs>
</svg>
