<svg width="12" height="12" viewBox="0 0 12 12" fill="none" xmlns="http://www.w3.org/2000/svg">
  <path d="M11.6999 5.19599C11.6995 5.19572 11.6993 5.19535 11.699 5.19508L6.80392 0.300202C6.59527 0.0914614 6.31787 -0.0234375 6.02279 -0.0234375C5.72772 -0.0234375 5.45031 0.0914614 5.24157 0.300202L0.349073 5.19261C0.347425 5.19425 0.345686 5.19599 0.344129 5.19764C-0.0843385 5.62858 -0.0836061 6.32777 0.346235 6.75761C0.542616 6.95408 0.801894 7.06779 1.07921 7.07979C1.09056 7.08089 1.10191 7.08144 1.11336 7.08144H1.30836V10.6837C1.30836 11.3966 1.88844 11.9766 2.60137 11.9766H4.51647C4.71065 11.9766 4.86803 11.8191 4.86803 11.625V8.8008C4.86803 8.47551 5.13271 8.21092 5.458 8.21092H6.58758C6.91287 8.21092 7.17746 8.47551 7.17746 8.8008V11.625C7.17746 11.8191 7.33484 11.9766 7.52902 11.9766H9.44412C10.1571 11.9766 10.7371 11.3966 10.7371 10.6837V7.08144H10.918C11.213 7.08144 11.4904 6.96654 11.6993 6.7577C12.1296 6.32722 12.1297 5.62675 11.6999 5.19599ZM11.202 6.26057C11.1261 6.33647 11.0252 6.37831 10.918 6.37831H10.3856C10.1914 6.37831 10.034 6.53569 10.034 6.72987V10.6837C10.034 11.0089 9.76941 11.2735 9.44412 11.2735H7.88058V8.8008C7.88058 8.08788 7.30059 7.5078 6.58758 7.5078H5.458C4.74499 7.5078 4.16491 8.08788 4.16491 8.8008V11.2735H2.60137C2.27617 11.2735 2.01149 11.0089 2.01149 10.6837V6.72987C2.01149 6.53569 1.85411 6.37831 1.65993 6.37831H1.13661C1.13112 6.37794 1.12572 6.37767 1.12013 6.37758C1.0154 6.37575 0.917159 6.33418 0.84355 6.26048C0.686995 6.10392 0.686995 5.84913 0.84355 5.69249C0.843642 5.69249 0.843642 5.69239 0.843733 5.6923L0.844008 5.69203L5.73888 0.797334C5.81469 0.721437 5.91549 0.679689 6.02279 0.679689C6.13 0.679689 6.2308 0.721437 6.3067 0.797334L11.2005 5.69102C11.2012 5.69175 11.202 5.69249 11.2028 5.69322C11.3585 5.85005 11.3582 6.10429 11.202 6.26057Z" fill="#D0CAE0"/>
</svg>
