<svg width="12" height="12" viewBox="0 0 12 12" fill="none" xmlns="http://www.w3.org/2000/svg">
  <g clip-path="url(#clip0)">
    <path d="M6 7.5C5.862 7.5 5.75 7.388 5.75 7.25V6.8745C5.75 6.7365 5.862 6.6245 6 6.6245C6.13799 6.6245 6.24999 6.7365 6.24999 6.8745V7.25C6.24999 7.388 6.13799 7.5 6 7.5Z" fill="#D0CAE0"/>
    <path d="M6.125 7H5.25C5.112 7 5 6.888 5 6.75C5 6.612 5.112 6.5 5.25 6.5H6.125C6.332 6.5 6.49999 6.3315 6.49999 6.125C6.49999 5.9185 6.332 5.75 6.125 5.75H5.875C5.3925 5.75 5 5.3575 5 4.875C5 4.3925 5.3925 4 5.875 4H6.74999C6.88799 4 6.99999 4.112 6.99999 4.25C6.99999 4.388 6.88799 4.5 6.74999 4.5H5.875C5.668 4.5 5.5 4.6685 5.5 4.875C5.5 5.0815 5.668 5.25 5.875 5.25H6.125C6.60749 5.25 6.99999 5.6425 6.99999 6.125C6.99999 6.6075 6.60749 7 6.125 7Z" fill="#D0CAE0"/>
    <path d="M6 4.3755C5.862 4.3755 5.75 4.2635 5.75 4.1255V3.75C5.75 3.612 5.862 3.5 6 3.5C6.13799 3.5 6.24999 3.612 6.24999 3.75V4.1255C6.24999 4.2635 6.13799 4.3755 6 4.3755Z" fill="#D0CAE0"/>
    <path d="M6 8.5C4.3455 8.5 3 7.1545 3 5.5C3 3.8455 4.3455 2.5 6 2.5C7.6545 2.5 9 3.8455 9 5.5C9 7.1545 7.6545 8.5 6 8.5ZM6 3C4.6215 3 3.5 4.1215 3.5 5.5C3.5 6.8785 4.6215 8 6 8C7.3785 8 8.5 6.8785 8.5 5.5C8.5 4.1215 7.3785 3 6 3Z" fill="#D0CAE0"/>
    <path d="M6 11C5.862 11 5.75 10.888 5.75 10.75C5.75 10.612 5.862 10.5 6 10.5C8.757 10.5 11 8.257 11 5.5C11 5.362 11.112 5.25 11.25 5.25C11.388 5.25 11.5 5.362 11.5 5.5C11.5 8.5325 9.0325 11 6 11Z" fill="#D0CAE0"/>
    <path d="M10.955 4.025C10.8515 4.025 10.7545 3.96 10.7185 3.857C10.0235 1.849 8.12702 0.5 6.00002 0.5C4.86202 0.5 3.79602 0.8735 2.91652 1.5795C2.80902 1.6655 2.65152 1.649 2.56502 1.5415C2.47852 1.4335 2.49602 1.2765 2.60352 1.19C3.57252 0.4115 4.74702 0 6.00002 0C8.34002 0 10.4265 1.4845 11.1915 3.693C11.2365 3.824 11.1675 3.966 11.037 4.0115C11.01 4.0205 10.982 4.025 10.955 4.025Z" fill="#D0CAE0"/>
    <path d="M4.25 10.695C4.2225 10.695 4.1945 10.6905 4.167 10.681C1.974 9.91202 0.5 7.83002 0.5 5.50002C0.5 4.39002 0.83 3.32452 1.454 2.41852C1.532 2.30402 1.6875 2.27652 1.8015 2.35402C1.9155 2.43252 1.944 2.58802 1.8655 2.70152C1.2995 3.52452 1 4.49202 1 5.50002C1 7.61802 2.3395 9.51052 4.333 10.209C4.463 10.2545 4.5315 10.397 4.486 10.5275C4.45 10.6305 4.3535 10.695 4.25 10.695Z" fill="#D0CAE0"/>
    <path d="M6.75001 12C6.68601 12 6.62201 11.9755 6.57301 11.927L5.573 10.927C5.4755 10.8295 5.4755 10.671 5.573 10.5735L6.57301 9.57351C6.67051 9.47601 6.82901 9.47601 6.92651 9.57351C7.02401 9.67101 7.02401 9.82951 6.92651 9.92701L6.10351 10.75L6.92651 11.573C7.02401 11.6705 7.02401 11.829 6.92651 11.9265C6.87801 11.9755 6.81401 12 6.75001 12Z" fill="#D0CAE0"/>
    <path d="M2.08699 3.99998C1.97649 3.99998 1.87549 3.92648 1.84549 3.81498L1.52199 2.60749L0.314493 2.93098C0.181493 2.96448 0.0439933 2.88749 0.00849328 2.75399C-0.0270067 2.62049 0.0519933 2.48399 0.185493 2.44799L1.63449 2.05999C1.76799 2.02649 1.90499 2.10349 1.94049 2.23649L2.32849 3.68498C2.36449 3.81898 2.28499 3.95548 2.15199 3.99148C2.12999 3.99698 2.10849 3.99998 2.08699 3.99998Z" fill="#D0CAE0"/>
    <path d="M11 4.29901C10.9575 4.29901 10.9145 4.28851 10.875 4.26551L9.57605 3.51551C9.45656 3.44651 9.41556 3.29401 9.48455 3.17401C9.55355 3.05451 9.70605 3.01301 9.82605 3.08251L10.9085 3.70751L11.5335 2.62501C11.6025 2.50551 11.7555 2.46401 11.875 2.53351C11.9945 2.60251 12.0355 2.75501 11.9665 2.87501L11.2165 4.17401C11.17 4.25401 11.086 4.29901 11 4.29901Z" fill="#D0CAE0"/>
  </g>
  <defs>
    <clipPath id="clip0">
      <rect width="12" height="12" fill="white"/>
    </clipPath>
  </defs>
</svg>
