<svg width="12" height="12" viewBox="0 0 12 12" fill="none" xmlns="http://www.w3.org/2000/svg">
  <g clip-path="url(#clip0)">
    <path d="M10.6213 0.476473C9.97585 -0.167857 8.93059 -0.167857 8.28513 0.476473L7.70033 1.06447L1.47522 7.28628L1.46199 7.29961C1.45879 7.30281 1.45879 7.30622 1.45538 7.30622C1.44876 7.31615 1.43884 7.32597 1.43233 7.33589C1.43233 7.3392 1.42892 7.3392 1.42892 7.3425C1.4223 7.35243 1.4191 7.35904 1.41238 7.36896C1.40918 7.37227 1.40918 7.37547 1.40587 7.37888C1.40256 7.38881 1.39925 7.39542 1.39584 7.40534C1.39584 7.40855 1.39264 7.40855 1.39264 7.41196L0.0114732 11.5653C-0.0290429 11.6835 0.00175759 11.8145 0.0907483 11.9022C0.15328 11.9639 0.237619 11.9984 0.32537 11.9981C0.361235 11.9975 0.396789 11.9919 0.431104 11.9816L4.58121 10.5971C4.58442 10.5971 4.58442 10.5971 4.58783 10.5939C4.59827 10.5908 4.60829 10.5864 4.61749 10.5806C4.62008 10.5803 4.62235 10.5791 4.62421 10.5774C4.63403 10.5708 4.64726 10.564 4.65718 10.5574C4.667 10.5509 4.67703 10.541 4.68695 10.5344C4.69026 10.531 4.69346 10.531 4.69346 10.5278C4.69687 10.5245 4.70349 10.5213 4.70679 10.5145L11.5167 3.70463C12.161 3.05917 12.161 2.01391 11.5167 1.36855L10.6213 0.476473ZM4.47548 9.8206L2.17578 7.521L7.93165 1.76513L10.2313 4.06473L4.47548 9.8206ZM1.85185 8.13226L3.86092 10.1412L0.84412 11.1456L1.85185 8.13226ZM11.0509 3.24201L10.7006 3.59559L8.40078 1.29579L8.75447 0.942304C9.14134 0.555748 9.76841 0.555748 10.1554 0.942304L11.0541 1.841C11.438 2.22962 11.4366 2.85524 11.0509 3.24201Z" fill="#D0CAE0"/>
  </g>
  <defs>
    <clipPath id="clip0">
      <rect width="12" height="12" fill="white"/>
    </clipPath>
  </defs>
</svg>
