<svg width="12" height="12" viewBox="0 0 12 12" fill="none" xmlns="http://www.w3.org/2000/svg">
  <path d="M9.10832 11.7985L9.10833 11.7985C9.18397 11.8741 9.28504 11.9142 9.38791 11.9142C9.43888 11.9142 9.49029 11.9044 9.53921 11.8841C9.68693 11.8229 9.78324 11.6787 9.78324 11.5188V9.45032C10.3517 8.98693 10.8241 8.40339 11.1564 7.75197C11.5367 7.00652 11.7294 6.20135 11.7294 5.35914C11.7294 2.45135 9.36384 0.0857428 6.45609 0.0857428H5.54394C2.63615 0.0857428 0.270542 2.45135 0.270542 5.35914C0.270542 8.26692 2.63615 10.6325 5.5439 10.6325H6.45606C6.90311 10.6325 7.3457 10.5765 7.77502 10.466L9.10832 11.7985ZM9.14992 8.94207L9.14991 8.94208C9.05079 9.01677 8.99243 9.13373 8.99243 9.25793V10.5646L8.17021 9.74286L8.17021 9.74285C8.09492 9.66765 7.99394 9.62712 7.89066 9.62712C7.85189 9.62712 7.81274 9.63286 7.77456 9.6446C7.34893 9.7754 6.90535 9.84171 6.45609 9.84171H5.54394C3.07223 9.84171 1.06136 7.8308 1.06136 5.35914C1.06136 2.88747 3.07227 0.87656 5.54394 0.87656H6.45609C8.92776 0.87656 10.9386 2.88747 10.9386 5.35914C10.9386 6.78006 10.2868 8.08586 9.14992 8.94207Z" fill="#D0CAE0" stroke="#D0CAE0" stroke-width="0.07"/>
  <path d="M6.21033 2.61473L6.21034 2.61473C6.98233 2.66794 7.60443 3.29004 7.65763 4.06199C7.70988 4.8201 7.22402 5.4929 6.49598 5.68208V6.49185C6.49598 6.49185 6.49598 6.49185 6.49598 6.49185C6.49601 6.71024 6.31898 6.88726 6.1006 6.88726C5.88226 6.88726 5.7052 6.71024 5.7052 6.49185V5.62597C5.7052 5.28667 5.93759 4.99764 6.26985 4.9233C6.6433 4.83974 6.89521 4.50067 6.86871 4.11639C6.84252 3.73641 6.53603 3.42991 6.15601 3.40372L6.156 3.40372C5.93891 3.38874 5.733 3.46158 5.5753 3.60876M6.21033 2.61473L5.5753 3.60876M6.21033 2.61473C5.77298 2.5847 5.35525 2.7323 5.03568 3.03064C4.72044 3.3249 4.53971 3.74077 4.53971 4.17183C4.53971 4.39022 4.71677 4.56724 4.93512 4.56724C5.15346 4.56724 5.33052 4.39022 5.33052 4.17183C5.33052 3.95596 5.41739 3.75615 5.5753 3.60876M6.21033 2.61473L5.55141 3.58318L5.5753 3.60876" fill="#D0CAE0" stroke="#D0CAE0" stroke-width="0.07"/>
  <path d="M6.38021 7.63793L6.3802 7.63792C6.30661 7.56433 6.20473 7.52207 6.10064 7.52207C5.99656 7.52207 5.89468 7.56433 5.82109 7.63792C5.7475 7.71151 5.70523 7.81339 5.70523 7.91748C5.70523 8.02191 5.74752 8.12379 5.82108 8.19739L5.82109 8.19739C5.89474 8.27105 5.99665 8.31288 6.10064 8.31288C6.20464 8.31288 6.30655 8.27105 6.3802 8.19739L6.38027 8.19733C6.45377 8.12343 6.49605 8.02195 6.49605 7.91748C6.49605 7.81339 6.45375 7.71151 6.38021 7.63793Z" fill="#D0CAE0" stroke="#D0CAE0" stroke-width="0.07"/>
</svg>
