<svg width="12" height="12" viewBox="0 0 12 12" fill="none" xmlns="http://www.w3.org/2000/svg">
  <path d="M10.9219 0H1.07812C0.49657 0 0.0234375 0.473133 0.0234375 1.05469V10.9453C0.0234375 11.5269 0.49657 12 1.07812 12H10.9219C11.5034 12 11.9766 11.5269 11.9766 10.9453V1.05469C11.9766 0.473133 11.5034 0 10.9219 0ZM0.726562 1.05469C0.726562 0.860836 0.884273 0.703125 1.07812 0.703125H10.9219C11.1157 0.703125 11.2734 0.860836 11.2734 1.05469V9.84375H0.726562V1.05469ZM11.2734 10.9453C11.2734 11.1392 11.1157 11.2969 10.9219 11.2969H1.07812C0.884273 11.2969 0.726562 11.1392 0.726562 10.9453V10.5469H11.2734V10.9453Z" fill="#D0CAE0"/>
  <path d="M7.52344 5.68547V1.75781C7.52344 1.56366 7.36603 1.40625 7.17188 1.40625C6.97772 1.40625 6.82031 1.56366 6.82031 1.75781V5.68547C6.41112 5.83059 6.11719 6.22137 6.11719 6.67969C6.11719 7.13801 6.41112 7.52878 6.82031 7.67391V8.78906C6.82031 8.98322 6.97772 9.14062 7.17188 9.14062C7.36603 9.14062 7.52344 8.98322 7.52344 8.78906V7.67391C7.93263 7.52878 8.22656 7.13801 8.22656 6.67969C8.22656 6.22137 7.93263 5.83059 7.52344 5.68547ZM7.17188 7.03125C6.97802 7.03125 6.82031 6.87354 6.82031 6.67969C6.82031 6.48584 6.97802 6.32812 7.17188 6.32812C7.36573 6.32812 7.52344 6.48584 7.52344 6.67969C7.52344 6.87354 7.36573 7.03125 7.17188 7.03125Z" fill="#D0CAE0"/>
  <path d="M9.86719 2.40422V1.75781C9.86719 1.56366 9.70978 1.40625 9.51562 1.40625C9.32147 1.40625 9.16406 1.56366 9.16406 1.75781V2.40422C8.75487 2.54934 8.46094 2.94012 8.46094 3.39844C8.46094 3.85676 8.75487 4.24753 9.16406 4.39266V8.78906C9.16406 8.98322 9.32147 9.14062 9.51562 9.14062C9.70978 9.14062 9.86719 8.98322 9.86719 8.78906V4.39266C10.2764 4.24753 10.5703 3.85676 10.5703 3.39844C10.5703 2.94012 10.2764 2.54934 9.86719 2.40422ZM9.51562 3.75C9.32177 3.75 9.16406 3.59229 9.16406 3.39844C9.16406 3.20459 9.32177 3.04688 9.51562 3.04688C9.70948 3.04688 9.86719 3.20459 9.86719 3.39844C9.86719 3.59229 9.70948 3.75 9.51562 3.75Z" fill="#D0CAE0"/>
  <path d="M5.17969 2.40422V1.75781C5.17969 1.56366 5.02228 1.40625 4.82812 1.40625C4.63397 1.40625 4.47656 1.56366 4.47656 1.75781V2.40422C4.06737 2.54934 3.77344 2.94012 3.77344 3.39844C3.77344 3.85676 4.06737 4.24753 4.47656 4.39266V8.78906C4.47656 8.98322 4.63397 9.14062 4.82812 9.14062C5.02228 9.14062 5.17969 8.98322 5.17969 8.78906V4.39266C5.58888 4.24753 5.88281 3.85676 5.88281 3.39844C5.88281 2.94012 5.58888 2.54934 5.17969 2.40422ZM4.82812 3.75C4.63427 3.75 4.47656 3.59229 4.47656 3.39844C4.47656 3.20459 4.63427 3.04688 4.82812 3.04688C5.02198 3.04688 5.17969 3.20459 5.17969 3.39844C5.17969 3.59229 5.02198 3.75 4.82812 3.75Z" fill="#D0CAE0"/>
  <path d="M2.83594 5.68547V1.75781C2.83594 1.56366 2.67853 1.40625 2.48438 1.40625C2.29022 1.40625 2.13281 1.56366 2.13281 1.75781V5.68547C1.72362 5.83059 1.42969 6.22137 1.42969 6.67969C1.42969 7.13801 1.72362 7.52878 2.13281 7.67391V8.78906C2.13281 8.98322 2.29022 9.14062 2.48438 9.14062C2.67853 9.14062 2.83594 8.98322 2.83594 8.78906V7.67391C3.24513 7.52878 3.53906 7.13801 3.53906 6.67969C3.53906 6.22137 3.24513 5.83059 2.83594 5.68547ZM2.48438 7.03125C2.29052 7.03125 2.13281 6.87354 2.13281 6.67969C2.13281 6.48584 2.29052 6.32812 2.48438 6.32812C2.67823 6.32812 2.83594 6.48584 2.83594 6.67969C2.83594 6.87354 2.67823 7.03125 2.48438 7.03125Z" fill="#D0CAE0"/>
</svg>
