<svg width="12" height="12" viewBox="0 0 12 12" fill="none" xmlns="http://www.w3.org/2000/svg">
  <g clip-path="url(#clip0)">
    <path d="M7.10366 7.00317H4.89771C4.71311 7.00317 4.56348 7.1528 4.56348 7.3374V11.6658C4.56348 11.8504 4.71311 12 4.89771 12H7.10366C7.28826 12 7.43789 11.8504 7.43789 11.6658V7.3374C7.43789 7.1528 7.28826 7.00317 7.10366 7.00317ZM6.76942 11.3315H5.23195V7.67164H6.76942V11.3315Z" fill="#D0CAE0"/>
    <path d="M11.4822 4.37942H9.25953C9.07493 4.37942 8.92529 4.52905 8.92529 4.71365V11.6658C8.92529 11.8504 9.07493 12 9.25953 12H11.4822C11.6668 12 11.8164 11.8504 11.8164 11.6658V4.71365C11.8164 4.52909 11.6668 4.37942 11.4822 4.37942ZM11.148 11.3315H9.59376V5.04789H11.148V11.3315Z" fill="#D0CAE0"/>
    <path d="M2.74185 8.62421H0.519173C0.334574 8.62421 0.184937 8.77384 0.184937 8.95844V11.6658C0.184937 11.8504 0.334574 12 0.519173 12H2.74185C2.92645 12 3.07608 11.8504 3.07608 11.6658V8.95844C3.07608 8.77388 2.92645 8.62421 2.74185 8.62421ZM2.40761 11.3315H0.853409V9.29268H2.40761V11.3315Z" fill="#D0CAE0"/>
    <path d="M11.8498 0.335191C11.799 0.265139 11.719 0.222084 11.6326 0.218213L8.591 0.00095498C8.4064 -0.0128956 8.24553 0.125546 8.23168 0.310113C8.21783 0.494712 8.35624 0.655577 8.54084 0.669427L10.6935 0.815609L6.73599 3.91154L3.71116 1.53846C3.582 1.43616 3.39759 1.44327 3.27665 1.55516L0.168276 4.52982C0.0361358 4.65518 0.0287147 4.86329 0.151578 4.99777C0.211203 5.07514 0.30467 5.11877 0.402263 5.11474C0.49042 5.1135 0.574515 5.07745 0.636219 5.01446L3.52737 2.2403L6.51876 4.59664C6.64086 4.6944 6.81445 4.6944 6.93655 4.59664L11.2148 1.26746L11.0476 3.34332C11.0468 3.52481 11.1845 3.67698 11.3652 3.69425H11.3819C11.5541 3.69511 11.6989 3.56486 11.7161 3.39344L11.9334 0.569147C11.9456 0.482173 11.9144 0.39472 11.8498 0.335191Z" fill="#D0CAE0"/>
  </g>
  <defs>
    <clipPath id="clip0">
      <rect width="12" height="12" fill="white"/>
    </clipPath>
  </defs>
</svg>
