<?xml version="1.0" encoding="UTF-8" standalone="no"?>
<svg
   xmlns:dc="http://purl.org/dc/elements/1.1/"
   xmlns:cc="http://creativecommons.org/ns#"
   xmlns:rdf="http://www.w3.org/1999/02/22-rdf-syntax-ns#"
   xmlns:svg="http://www.w3.org/2000/svg"
   xmlns="http://www.w3.org/2000/svg"
   xmlns:xlink="http://www.w3.org/1999/xlink"
   xmlns:sodipodi="http://sodipodi.sourceforge.net/DTD/sodipodi-0.dtd"
   xmlns:inkscape="http://www.inkscape.org/namespaces/inkscape"
   width="320"
   height="40"
   viewBox="0 0 320 40"
   fill="none"
   version="1.1"
   id="svg6"
   sodipodi:docname="edit3.svg"
   inkscape:version="1.0rc1 (09960d6f05, 2020-04-09)">
  <metadata
     id="metadata12">
    <rdf:RDF>
      <cc:Work
         rdf:about="">
        <dc:format>image/svg+xml</dc:format>
        <dc:type
           rdf:resource="http://purl.org/dc/dcmitype/StillImage" />
      </cc:Work>
    </rdf:RDF>
  </metadata>
  <defs
     id="defs10">
    <linearGradient
       id="linearGradient858"
       inkscape:collect="always">
      <stop
         id="stop854"
         offset="0"
         style="stop-color:#03ee65;stop-opacity:1" />
      <stop
         id="stop856"
         offset="1"
         style="stop-color:#a31fed;stop-opacity:1" />
    </linearGradient>
    <linearGradient
       gradientUnits="userSpaceOnUse"
       y2="23.5"
       x2="321"
       y1="23.5"
       x1="1"
       id="linearGradient860"
       xlink:href="#linearGradient858"
       inkscape:collect="always" />
    <linearGradient
       gradientUnits="userSpaceOnUse"
       y2="20"
       x2="321.5"
       y1="20"
       x1="-1.5000015"
       id="linearGradient876"
       xlink:href="#linearGradient858"
       inkscape:collect="always" />
  </defs>
  <sodipodi:namedview
     inkscape:document-rotation="0"
     pagecolor="#ffffff"
     bordercolor="#666666"
     borderopacity="1"
     objecttolerance="10"
     gridtolerance="10"
     guidetolerance="10"
     inkscape:pageopacity="0"
     inkscape:pageshadow="2"
     inkscape:window-width="1680"
     inkscape:window-height="987"
     id="namedview8"
     showgrid="false"
     inkscape:zoom="2.085965"
     inkscape:cx="202.422"
     inkscape:cy="102.65701"
     inkscape:window-x="-8"
     inkscape:window-y="-8"
     inkscape:window-maximized="1"
     inkscape:current-layer="svg6" />
  <path
     style="fill-opacity:1.0;stroke:url(#linearGradient860);fill:url(#linearGradient876);stroke-opacity:1"
     d="M5.11379 38.725L4.62517 39.5975L5.11379 38.725ZM1.27504 34.8862L0.402544 35.3748L1.27504 34.8862ZM318.725 34.8862L319.597 35.3748L318.725 34.8862ZM314.886 38.725L315.375 39.5975L314.886 38.725ZM314.886 1.27504L314.398 2.14754L314.886 1.27504ZM318.725 5.11379L319.597 4.62517L318.725 5.11379ZM16.5 1H303.5V-1H16.5V1ZM319 16.5V23.5H321V16.5H319ZM303.5 39H16.5V41H303.5V39ZM1 23.5V16.5H-1V23.5H1ZM16.5 39C13.4456 39 11.22 38.9991 9.47137 38.8445C7.73599 38.6911 6.56635 38.3923 5.60241 37.8525L4.62517 39.5975C5.93798 40.3327 7.42495 40.6714 9.29525 40.8367C11.1523 41.0009 13.4814 41 16.5 41V39ZM-1 23.5C-1 26.5186 -1.00091 28.8477 -0.836735 30.7048C-0.671391 32.5751 -0.332664 34.062 0.402544 35.3748L2.14754 34.3976C1.6077 33.4337 1.30891 32.264 1.1555 30.5286C1.00091 28.78 1 26.5544 1 23.5H-1ZM5.60241 37.8525C4.15424 37.0415 2.95855 35.8458 2.14754 34.3976L0.402544 35.3748C1.39378 37.1448 2.85518 38.6062 4.62517 39.5975L5.60241 37.8525ZM319 23.5C319 26.5544 318.999 28.78 318.845 30.5286C318.691 32.264 318.392 33.4337 317.852 34.3976L319.597 35.3748C320.333 34.062 320.671 32.5751 320.837 30.7048C321.001 28.8477 321 26.5186 321 23.5H319ZM303.5 41C306.519 41 308.848 41.0009 310.705 40.8367C312.575 40.6714 314.062 40.3327 315.375 39.5975L314.398 37.8525C313.434 38.3923 312.264 38.6911 310.529 38.8445C308.78 38.9991 306.554 39 303.5 39V41ZM317.852 34.3976C317.041 35.8458 315.846 37.0415 314.398 37.8525L315.375 39.5975C317.145 38.6062 318.606 37.1448 319.597 35.3748L317.852 34.3976ZM303.5 1C306.554 1 308.78 1.00091 310.529 1.1555C312.264 1.30891 313.434 1.6077 314.398 2.14754L315.375 0.402544C314.062 -0.332664 312.575 -0.671391 310.705 -0.836735C308.848 -1.00091 306.519 -1 303.5 -1V1ZM321 16.5C321 13.4814 321.001 11.1523 320.837 9.29525C320.671 7.42495 320.333 5.93798 319.597 4.62517L317.852 5.60241C318.392 6.56635 318.691 7.73599 318.845 9.47137C318.999 11.22 319 13.4456 319 16.5H321ZM314.398 2.14754C315.846 2.95855 317.041 4.15424 317.852 5.60241L319.597 4.62517C318.606 2.85518 317.145 1.39378 315.375 0.402544L314.398 2.14754ZM16.5 -1C13.4814 -1 11.1523 -1.00091 9.29525 -0.836735C7.42495 -0.671391 5.93798 -0.332664 4.62517 0.402544L5.60241 2.14754C6.56635 1.6077 7.73599 1.30891 9.47137 1.1555C11.22 1.00091 13.4456 1 16.5 1V-1ZM1 16.5C1 13.4456 1.00091 11.22 1.1555 9.47137C1.30891 7.73599 1.6077 6.56635 2.14754 5.60241L0.402544 4.62517C-0.332664 5.93798 -0.671391 7.42495 -0.836735 9.29525C-1.00091 11.1523 -1 13.4814 -1 16.5H1ZM4.62517 0.402544C2.85518 1.39378 1.39378 2.85518 0.402544 4.62517L2.14754 5.60241C2.95855 4.15424 4.15424 2.95855 5.60241 2.14754L4.62517 0.402544Z"
     fill="#D7D5E6"
     id="path4" />
</svg>
