<svg width="145" height="31" viewBox="0 0 145 31" fill="none" xmlns="http://www.w3.org/2000/svg">
<path d="M52.3566 21.8685L60.5095 1.00891H55.5113L50.7214 14.2337C50.4515 14.9645 50.2509 15.7187 50.1044 16.4806C49.9424 15.7187 49.7418 14.9723 49.4873 14.2337L44.6511 1.00891H39.6067L47.7596 21.8685H52.3566Z" fill="#231E28"/>
<path d="M78.0648 3.04595C76.3756 1.36661 74.1927 0.519165 71.5085 0.519165C68.4464 0.519165 66.0167 1.49878 64.2119 3.45801C62.407 5.39391 61.5045 8.04509 61.5045 11.4193C61.5045 14.7391 62.3915 17.3903 64.1656 19.3728C65.9705 21.3632 68.4156 22.3506 71.5008 22.3506C74.5321 22.3506 77.0312 21.2777 78.9981 19.1241L76.1828 16.1463C75.0026 17.4758 73.3134 18.2144 71.5548 18.1911C70.1047 18.1911 68.9169 17.7557 67.9913 16.8927C67.0889 15.9986 66.4872 14.7858 66.1864 13.2619H79.9159C80.0394 12.3134 80.0933 11.3571 80.0779 10.4008C80.0779 7.15877 79.7617 4.70974 78.0648 3.04595ZM66.1402 9.25794C66.387 7.81185 66.9578 6.68451 67.8602 5.86817C68.7858 5.05182 70.0045 4.63976 71.5085 4.63976C72.6192 4.61644 73.6991 5.04405 74.5013 5.82152C75.3497 6.58344 75.8434 7.72633 75.9745 9.25017L66.1402 9.25794Z" fill="#231E28"/>
<path d="M87.9222 27.9017V20.1892C89.1795 21.6353 90.8995 22.3583 93.0901 22.3583C95.7666 22.3583 97.9494 21.3787 99.6463 19.4273C101.366 17.468 102.23 14.8169 102.23 11.466C102.23 8.03731 101.397 5.35504 99.7312 3.41913C98.0805 1.48323 95.8591 0.519165 93.0438 0.519165C90.915 0.519165 89.2103 1.21111 87.9222 2.60279V1.00897H83.2095V30.0786L87.9222 27.9017ZM92.3882 17.8723C90.3905 17.8723 88.9095 17.1804 87.9222 15.7887V7.0577C88.9018 5.66603 90.3828 4.97408 92.3496 4.97408C93.9925 4.97408 95.2421 5.55718 96.1214 6.73116C97.0238 7.90514 97.4712 9.48341 97.4712 11.466C97.4712 13.534 97.0238 15.1201 96.1214 16.2396C95.2498 17.3281 94.0003 17.8723 92.3882 17.8723Z" fill="#231E28"/>
<path d="M118.243 20.2358V21.8685H122.832V8.35608C122.832 3.13147 120.055 0.519165 114.51 0.519165C111.394 0.519165 108.57 1.31996 106.025 2.92155L107.46 6.76226C109.589 5.34726 111.802 4.63976 114.101 4.63976C116.862 4.63976 118.243 5.89149 118.243 8.40273V9.61558C116.77 8.88476 115.034 8.51157 113.036 8.51157C110.746 8.51157 108.779 9.09468 107.136 10.2687C105.493 11.4426 104.675 13.1531 104.675 15.4155C104.675 17.6546 105.385 19.3651 106.804 20.5624C108.254 21.7597 110.121 22.3583 112.419 22.3583C114.826 22.3583 116.77 21.6508 118.243 20.2358ZM113.283 18.2377C112.003 18.2377 111 17.9812 110.291 17.468C109.581 16.9549 109.226 16.2707 109.226 15.4311C109.226 14.4748 109.65 13.7517 110.499 13.2619C111.37 12.7721 112.466 12.5311 113.777 12.5311C115.497 12.5311 116.986 12.8421 118.243 13.4718V16.1463C116.901 17.538 115.25 18.23 113.283 18.2377Z" fill="#231E28"/>
<path d="M134.016 29.7831L145 1.00891H140.164L135.366 13.7439C135.312 13.8761 135.243 14.086 135.158 14.3581L134.911 15.0889C134.826 15.3066 134.757 15.5088 134.703 15.7031C134.541 15.0345 134.333 14.3814 134.086 13.7439L129.304 1.00891H124.506L132.335 21.5031L129.142 29.7909L134.016 29.7831Z" fill="#231E28"/>
<path d="M39.9 11.1471C39.9 5.96141 35.7271 1.76306 30.5824 1.76306C28.5384 1.76306 26.6487 2.42391 25.1138 3.55125C27.1423 9.21901 29.0706 14.9412 31.3383 20.5157C36.1282 20.1192 39.9 16.0763 39.9 11.1471Z" fill="#3ADF54"/>
<path d="M24.1881 0.977783H19.1591L27.2965 21.814H31.8781C31.7007 21.3786 24.5043 1.833 24.1881 0.977783Z" fill="#9736DA"/>
<path d="M14.6468 0.977783C17.1845 7.9206 20.0152 14.9956 22.8691 21.814H18.2875L9.6178 0.977783H14.6468Z" fill="#9736DA"/>
<path d="M5.10555 0.977783C7.6432 7.9206 13.3278 21.814 13.3278 21.814H8.74619L0.0765381 0.977783H5.10555Z" fill="#9736DA"/>
</svg>
