<?xml version="1.0" encoding="UTF-8" standalone="no"?>
<svg
   xmlns:dc="http://purl.org/dc/elements/1.1/"
   xmlns:cc="http://creativecommons.org/ns#"
   xmlns:rdf="http://www.w3.org/1999/02/22-rdf-syntax-ns#"
   xmlns:svg="http://www.w3.org/2000/svg"
   xmlns="http://www.w3.org/2000/svg"
   xmlns:sodipodi="http://sodipodi.sourceforge.net/DTD/sodipodi-0.dtd"
   xmlns:inkscape="http://www.inkscape.org/namespaces/inkscape"
   inkscape:version="1.0rc1 (09960d6f05, 2020-04-09)"
   sodipodi:docname="logo_vepay.svg"
   id="svg20"
   version="1.1"
   fill="none"
   viewBox="0 0 145 31"
   height="31"
   width="145">
  <metadata
     id="metadata26">
    <rdf:RDF>
      <cc:Work
         rdf:about="">
        <dc:format>image/svg+xml</dc:format>
        <dc:type
           rdf:resource="http://purl.org/dc/dcmitype/StillImage" />
      </cc:Work>
    </rdf:RDF>
  </metadata>
  <defs
     id="defs24">
    <linearGradient
       gradientTransform="matrix(1.9193784,0,0,1.9193784,-21.306377,-19.669626)"
       id="paint0_linear"
       x1="31.1203"
       y1="19.052401"
       x2="25.5658"
       y2="11.1316"
       gradientUnits="userSpaceOnUse">
      <stop
         stop-color="#A31FED"
         id="stop20" />
      <stop
         offset="1"
         stop-color="#00FF66"
         id="stop22" />
    </linearGradient>
    <linearGradient
       gradientTransform="matrix(1.9193784,0,0,1.9193784,-21.306377,-19.669626)"
       id="paint1_linear"
       x1="24.7316"
       y1="21.2801"
       x2="24.7316"
       y2="10.5601"
       gradientUnits="userSpaceOnUse">
      <stop
         stop-color="#771BBF"
         id="stop25" />
      <stop
         offset="1"
         stop-color="#A31FED"
         id="stop27" />
    </linearGradient>
    <linearGradient
       gradientTransform="matrix(1.9193784,0,0,1.9193784,-21.306377,-19.669626)"
       id="paint2_linear"
       x1="3438.52"
       y1="5713.6001"
       x2="3438.52"
       y2="2840.6399"
       gradientUnits="userSpaceOnUse">
      <stop
         stop-color="#771BBF"
         id="stop30" />
      <stop
         offset="1"
         stop-color="#A31FED"
         id="stop32" />
    </linearGradient>
    <linearGradient
       gradientTransform="matrix(1.9193784,0,0,1.9193784,-21.306377,-19.669626)"
       id="paint3_linear"
       x1="2583.3401"
       y1="5713.6001"
       x2="2583.3401"
       y2="2840.6399"
       gradientUnits="userSpaceOnUse">
      <stop
         stop-color="#771BBF"
         id="stop35" />
      <stop
         offset="1"
         stop-color="#A31FED"
         id="stop37" />
    </linearGradient>
  </defs>
  <sodipodi:namedview
     inkscape:current-layer="svg20"
     inkscape:window-maximized="1"
     inkscape:window-y="-8"
     inkscape:window-x="-8"
     inkscape:cy="45.850258"
     inkscape:cx="76.210408"
     inkscape:zoom="3.2551724"
     showgrid="false"
     id="namedview22"
     inkscape:window-height="987"
     inkscape:window-width="1680"
     inkscape:pageshadow="2"
     inkscape:pageopacity="0"
     guidetolerance="10"
     gridtolerance="10"
     objecttolerance="10"
     borderopacity="1"
     bordercolor="#666666"
     pagecolor="#ffffff" />
  <path
     style="stroke-width:1.91938"
     inkscape:connector-curvature="0"
     d="M 48.771663,21.251712 40.645974,0.5992 h 5.022629 l 4.818023,13.094767 c 0.24856,0.729172 0.453358,1.472546 0.613242,2.226478 0.143953,-0.757578 0.348942,-1.502296 0.613242,-2.226478 L 56.488907,0.5992 h 4.982706 l -8.125688,20.652512 z"
     fill="#231f30"
     id="path2-7" />
  <path
     style="stroke-width:1.91938"
     inkscape:connector-curvature="0"
     d="m 80.944858,9.902043 c 0,1.184832 -0.05451,2.127439 -0.163339,2.827628 h -13.66962 c 0.299038,1.507863 0.897501,2.706132 1.795386,3.594612 0.924948,0.861992 2.108437,1.292893 3.550082,1.292893 1.822834,0 3.359872,-0.673318 4.610922,-2.019954 l 2.815536,2.948166 c -1.958341,2.127247 -4.447391,3.190774 -7.467149,3.190774 -3.073884,0 -5.508423,-0.982722 -7.303235,-2.948166 -1.768131,-1.964867 -2.652196,-4.589809 -2.652196,-7.874824 0,-3.33876 0.897501,-5.963893 2.692888,-7.875593 1.795386,-1.938764 4.216106,-2.908243 7.262543,-2.908243 2.666209,0 4.842208,0.834738 6.52819,2.504405 1.686366,1.641452 1.999992,4.064475 1.999992,7.268302 z M 67.069864,8.737364 h 9.793051 C 76.726832,7.2295 76.237198,6.098602 75.394017,5.344672 74.576361,4.563677 73.583658,4.173082 72.415908,4.173082 c -1.496347,0 -2.706707,0.403837 -3.631272,1.211512 -0.897309,0.80825 -1.468516,1.925712 -1.713236,3.35277 z"
     fill="#231f30"
     id="path4-3" />
  <path
     style="stroke-width:1.91938"
     inkscape:connector-curvature="0"
     d="M 84.090911,29.354558 V 0.5992 H 88.7669 v 1.574657 c 1.274084,-1.372738 2.968511,-2.059492 5.08309,-2.059876 2.791928,0 5.001137,0.955851 6.6278,2.867551 1.65182,1.912085 2.47773,4.564474 2.47773,7.956976 0,3.312078 -0.85412,5.937213 -2.56198,7.875593 -1.680424,1.938188 -3.848935,2.907474 -6.50593,2.907474 -2.168322,0 -3.876185,-0.713241 -5.12378,-2.139723 v 7.632983 z M 93.21314,17.270152 c 1.604601,0 2.842024,-0.537425 3.712461,-1.612277 0.897887,-1.104026 1.346829,-2.67926 1.346829,-4.72551 0,-1.966019 -0.448942,-3.52705 -1.346829,-4.683283 -0.868902,-1.157385 -2.120911,-1.73627 -3.756222,-1.736654 -1.958918,0 -3.427818,0.686562 -4.407085,2.059878 v 8.63797 c 0.982338,1.373123 2.466401,2.059876 4.452383,2.059876 z"
     fill="#231f30"
     id="path6-1" />
  <path
     style="stroke-width:1.91938"
     inkscape:connector-curvature="0"
     d="m 112.75528,21.73597 c -2.29978,0 -4.17502,-0.592511 -5.62588,-1.777345 -1.42379,-1.184448 -2.13569,-2.880602 -2.13569,-5.088655 0,-2.235116 0.8213,-3.931462 2.46371,-5.088656 1.64261,-1.157193 3.61362,-1.735694 5.91341,-1.735118 1.99865,0 3.73627,0.363722 5.21265,1.090975 V 7.923356 c 0,-2.476765 -1.38252,-3.715149 -4.14777,-3.715149 -2.2998,0 -4.51726,0.699997 -6.65238,2.0998 l -1.43742,-3.79653 c 2.54606,-1.586751 5.37963,-2.380029 8.50054,-2.380029 5.55776,0 8.33664,2.584826 8.33664,7.754288 v 13.365783 h -4.59961 v -1.612277 c -1.47542,1.397883 -3.41803,2.096728 -5.8282,2.096728 z m 0.97121,-4.102096 c 1.95834,0 3.60402,-0.686561 4.93683,-2.059876 v -2.665632 c -1.25104,-0.619384 -2.73318,-0.928979 -4.44624,-0.928979 -1.30575,0 -2.39364,0.242417 -3.26409,0.72706 -0.84317,0.484258 -1.26467,1.197692 -1.26467,2.14049 0,0.834738 0.35355,1.507863 1.06084,2.019186 0.70728,0.511322 1.6998,0.767176 2.97733,0.767751 z"
     fill="#231f30"
     id="path8-4" />
  <path
     style="stroke-width:1.91938"
     inkscape:connector-curvature="0"
     d="M 129.33392,29.082774 132.51759,20.880887 124.72147,0.5992 h 4.77579 l 4.7758,12.604941 c 0.24798,0.631668 0.45298,1.27965 0.61323,1.93934 0.0547,-0.188867 0.12285,-0.390786 0.20461,-0.605755 l 0.24453,-0.72706 c 0.0818,-0.26929 0.15009,-0.471208 0.2048,-0.605757 L 140.31373,0.5992 h 4.81629 L 134.1911,29.082774 Z"
     fill="#231f30"
     id="path10-6" />
  <path
     style="fill:url(#paint0_linear);stroke-width:1.91938"
     inkscape:connector-curvature="0"
     d="M 40.479757,10.62277 C 40.479371,8.912794 40.007972,7.236026 39.117189,5.777299 38.226405,4.318379 36.95098,3.134123 35.431216,2.354856 33.911451,1.575588 32.206275,1.231442 30.503787,1.360618 28.801299,1.489792 27.167332,2.08691 25.782116,3.086522 c 1.647403,4.429157 4.991152,13.435648 6.233757,16.789187 2.310357,-0.203262 4.461019,-1.266022 6.027616,-2.978876 1.566789,-1.712661 2.435882,-3.951232 2.436268,-6.274063 z"
     fill="url(#paint0_linear)"
     id="path12-4" />
  <path
     style="fill:url(#paint1_linear);stroke-width:1.91938"
     inkscape:connector-curvature="0"
     d="M 24.841237,0.5992 H 19.84164 l 8.089796,20.575736 h 4.552573 c 0,0 -7.642772,-20.583414 -7.642772,-20.575736 z"
     fill="url(#paint1_linear)"
     id="path14-6" />
  <path
     style="fill:url(#paint2_linear);stroke-width:1.91938"
     inkscape:connector-curvature="0"
     d="m 10.342444,0.5992 8.616281,20.575736 h 4.552766 C 20.675226,14.440221 17.863336,7.455988 15.34204,0.5992 Z"
     fill="url(#paint2_linear)"
     id="path16-4" />
  <path
     style="fill:url(#paint3_linear);stroke-width:1.91938"
     inkscape:connector-curvature="0"
     d="m 0.843056,0.5992 8.6162806,20.575736 h 4.5527664 c 0,0 -5.6473871,-13.718948 -8.1686826,-20.575736 z"
     fill="url(#paint3_linear)"
     id="path18-9" />
</svg>
