<svg width="32" height="15" viewBox="0 0 32 15" fill="none" xmlns="http://www.w3.org/2000/svg">
<path d="M19.2453 13.2533H12.754V1.58728H19.2453V13.2533Z" fill="#6C6BBD"/>
<path d="M13.1698 7.41934C13.1698 5.05282 14.2778 2.9448 16.0033 1.58631C14.7415 0.592913 13.1491 -1.2083e-05 11.4184 -1.2083e-05C7.32123 -1.2083e-05 4 3.32169 4 7.41934C4 11.517 7.32123 14.8387 11.4184 14.8387C13.1491 14.8387 14.7415 14.2458 16.0033 13.2524C14.2778 11.8939 13.1698 9.78585 13.1698 7.41934Z" fill="#EB001B"/>
<path d="M28 7.41934C28 11.517 24.6788 14.8387 20.5816 14.8387C18.8509 14.8387 17.2585 14.2458 15.9962 13.2524C17.7222 11.8939 18.8302 9.78585 18.8302 7.41934C18.8302 5.05282 17.7222 2.9448 15.9962 1.58631C17.2585 0.592913 18.8509 -1.2083e-05 20.5816 -1.2083e-05C24.6788 -1.2083e-05 28 3.32169 28 7.41934Z" fill="#0099DF"/>
</svg>
