<svg width="32" height="15" viewBox="0 0 32 15" fill="none" xmlns="http://www.w3.org/2000/svg">
<path d="M19.5955 1.57306H12.4475V13.1236H19.5955V1.57306Z" fill="#FF5F00"/>
<path d="M13.1684 7.36878C13.1684 5.12398 14.219 2.98121 16.0112 1.59352C12.7977 -0.91658 8.12159 -0.365583 5.58787 2.81795C3.05414 6.00149 3.61033 10.6339 6.84443 13.1236C9.54295 15.2256 13.3126 15.2256 16.0112 13.144C14.219 11.7359 13.1684 9.61358 13.1684 7.36878Z" fill="#EB001B"/>
<path d="M27.2996 11.9196V11.6747H27.4026V11.6339H27.1554V11.6747H27.2584V11.9196H27.2996ZM27.7734 11.9196V11.6339H27.691L27.6086 11.8379L27.5262 11.6339H27.4438V11.9196H27.5056V11.6951L27.588 11.8787H27.6498L27.7322 11.6951V11.9196H27.7734Z" fill="#F79E1B"/>
<path d="M28 7.36873C28 11.4298 24.6835 14.7154 20.5842 14.7154C18.9157 14.7154 17.3089 14.1644 16.0111 13.144C19.2246 10.6339 19.7808 6.00144 17.2677 2.81791C16.8969 2.34854 16.4849 1.94039 16.0111 1.57306C19.2246 -0.937037 23.9007 -0.38604 26.4344 2.81791C27.4438 4.10357 28 5.71574 28 7.36873Z" fill="#F79E1B"/>
</svg>
