<svg width="32" height="15" viewBox="0 0 32 15" fill="none" xmlns="http://www.w3.org/2000/svg">
<path d="M23.0871 7.04791V11.96H25.8465V9.04913H28.9738C30.2891 9.04003 31.4067 8.20771 31.8298 7.04791H23.0871Z" fill="#37A72E"/>
<path d="M22.7192 3C22.8802 5.00577 24.8026 6.5931 27.1481 6.5931C27.1573 6.5931 31.9448 6.5931 31.9448 6.5931C31.9816 6.41117 32 6.22014 32 6.02457C32 4.35992 30.6433 3.01364 28.9647 3H22.7192Z" fill="url(#paint0_linear)"/>
<path d="M18.6352 6.54307V6.53852V6.54307C18.6674 6.48849 18.718 6.45665 18.7824 6.45665C18.8744 6.45665 18.9434 6.52942 18.948 6.61584V11.9145H21.7074V3H18.948C18.5985 3.01364 18.2029 3.2638 18.0558 3.57762L15.862 8.23501C15.8574 8.2532 15.8482 8.27139 15.839 8.28958C15.8068 8.33507 15.7517 8.3669 15.6873 8.3669C15.5861 8.3669 15.5033 8.28504 15.5033 8.18498V3H12.7439V11.9145H15.5033C15.8482 11.8963 16.2346 11.6462 16.3817 11.3369L18.6352 6.55671C18.6306 6.55216 18.6352 6.54761 18.6352 6.54307Z" fill="#37A72E"/>
<path d="M8.33343 6.69771L6.71917 11.9145H4.7324L3.11814 6.69316C3.10434 6.61129 3.03076 6.54761 2.94338 6.54761C2.8422 6.54761 2.75941 6.62948 2.75941 6.725V11.91H0V3H2.3685H3.07215C3.57804 3 4.11153 3.39115 4.2587 3.86871L5.60161 8.21226C5.6706 8.43058 5.77637 8.42603 5.84536 8.21226L7.18827 3.86871C7.34004 3.39115 7.86893 3 8.37942 3H9.08307H11.4516V11.9145H8.69215V6.72954C8.69215 6.72954 8.69215 6.72954 8.69215 6.725C8.69215 6.62493 8.60937 6.54761 8.51279 6.54761C8.42081 6.54761 8.34723 6.61129 8.33343 6.69771Z" fill="#37A72E"/>
<defs>
<linearGradient id="paint0_linear" x1="22.7198" y1="4.79664" x2="31.999" y2="4.79664" gradientUnits="userSpaceOnUse">
<stop stop-color="#00A0E5"/>
<stop offset="1" stop-color="#0077C3"/>
</linearGradient>
</defs>
</svg>
