<svg width="250" height="33" viewBox="0 0 250 33" fill="none" xmlns="http://www.w3.org/2000/svg">
<path d="M250 20.5789L212.831 32L202 3.13012L241.02 1L250 20.5789Z" fill="#02797E"/>
<path d="M221.904 14.7778C221.904 15.5029 221.718 16.1374 221.394 16.7266C221.07 17.2705 220.608 17.769 220.006 18.1316C219.404 18.4942 218.663 18.7661 217.83 18.9474C216.997 19.1287 216.071 19.2193 215.007 19.2193H214.266V22.9357H209.452V10.5629H215.099C217.229 10.5629 218.895 10.9254 220.098 11.6053C221.302 12.2851 221.904 13.3728 221.904 14.7778ZM217.275 14.8231C217.275 13.7354 216.442 13.1915 214.822 13.1915H214.22V16.5H214.775C215.562 16.5 216.21 16.364 216.627 16.0921C217.043 15.8655 217.275 15.4123 217.275 14.8231Z" fill="white"/>
<path d="M233.846 22.9357C233.105 23.0717 232.272 23.1623 231.3 23.1623C229.958 23.1623 228.754 23.0263 227.736 22.7091C226.671 22.3918 225.792 21.9839 225.051 21.4401C224.31 20.8962 223.755 20.2164 223.385 19.4459C223.014 18.6301 222.829 17.769 222.829 16.8173C222.829 15.8655 223.014 15.0044 223.431 14.1886C223.848 13.4181 224.403 12.7383 225.144 12.1491C225.884 11.6053 226.764 11.1521 227.782 10.8348C228.8 10.5176 229.911 10.3816 231.115 10.3816C232.04 10.3816 232.92 10.4269 233.707 10.5629C234.494 10.7442 234.494 10.7442 235.095 10.9708V14.2793C234.633 14.0073 234.077 13.7807 233.475 13.6447C232.874 13.4635 232.226 13.3728 231.578 13.3728C230.467 13.3728 229.587 13.6901 228.893 14.2339C228.199 14.8231 227.875 15.6389 227.875 16.7719C227.875 17.3158 227.967 17.8143 228.199 18.2676C228.43 18.6755 228.708 19.038 229.078 19.31C229.448 19.5819 229.865 19.8085 230.374 19.9445C230.883 20.0804 231.392 20.1711 231.948 20.1711C232.503 20.1711 233.105 20.1257 233.661 19.9898C234.216 19.8538 234.818 19.7179 235.419 19.4459V22.5731C234.679 22.7544 234.586 22.7997 233.846 22.9357Z" fill="white"/>
<path d="M242.27 10.5629H237.41V22.981H242.27V10.5629Z" fill="white"/>
<path d="M242.779 6.66522C242.779 7.48101 242.501 8.16083 241.946 8.61405C241.391 9.06727 240.696 9.3392 239.863 9.3392C239.03 9.3392 238.336 9.11259 237.78 8.61405C237.225 8.16083 236.947 7.48101 236.947 6.66522C236.947 5.80411 237.225 5.16961 237.78 4.67107C238.336 4.17253 239.03 3.94592 239.863 3.94592C240.696 3.94592 241.391 4.17253 241.946 4.67107C242.501 5.12429 242.779 5.80411 242.779 6.66522Z" fill="white"/>
<g clip-path="url(#clip0)">
<path d="M22.0908 24.7479H17.9789L20.5545 8.29944H24.6889L22.0908 24.7479Z" fill="#00579F"/>
<path d="M37.0698 8.6949C36.2565 8.36919 34.9687 7.99695 33.3646 7.99695C29.2753 7.99695 26.406 10.2304 26.3834 13.441C26.3608 15.8141 28.4394 17.1169 29.9983 17.9079C31.6024 18.7222 32.1446 19.234 32.1446 19.9553C32.122 21.0487 30.8568 21.5606 29.6594 21.5606C28.0101 21.5606 27.129 21.3046 25.7734 20.6765L25.2312 20.4206L24.689 24.1197C25.6605 24.585 27.4453 24.9805 29.2979 25.0038C33.6357 25.0038 36.4598 22.7936 36.4824 19.3736C36.505 17.4891 35.398 16.07 33.0031 14.8834C31.5572 14.139 30.6761 13.6271 30.6761 12.8594C30.6987 12.1614 31.4216 11.4402 33.0483 11.4402C34.3813 11.3937 35.3754 11.7426 36.1209 12.0684L36.5276 12.2545L37.0698 8.6949Z" fill="#00579F"/>
<path d="M42.5599 18.9316C42.8988 17.9778 44.2092 14.3251 44.2092 14.3251C44.1866 14.3717 44.5481 13.3712 44.7514 12.7431L45.0451 14.1623C45.0451 14.1623 45.8359 18.0941 45.994 18.9316C45.3614 18.9316 43.3958 18.9316 42.5599 18.9316ZM47.6659 8.29944H44.4803C43.4862 8.29944 42.7406 8.60189 42.3114 9.67208L36.1661 24.7712H40.504C40.504 24.7712 41.2269 22.7471 41.3625 22.3051C41.8369 22.3051 46.0618 22.3051 46.6718 22.3051C46.7848 22.8867 47.1688 24.7712 47.1688 24.7712H50.987L47.6659 8.29944Z" fill="#00579F"/>
<path d="M14.5221 8.29944L10.478 19.5133L10.0262 17.2333C9.2806 14.6276 6.93095 11.766 4.31018 10.3468L8.0154 24.7247H12.3758L18.8825 8.29944H14.5221Z" fill="#00579F"/>
<path d="M6.70506 8.29944H0.0627738L-0.00500488 8.62515C5.19134 9.99779 8.62545 13.2782 10.0262 17.2333L8.58026 9.67208C8.35433 8.62515 7.60877 8.3227 6.70506 8.29944Z" fill="#FAA61A"/>
</g>
<path d="M113.896 16.132V26H119.501V20.1523H125.853C128.525 20.134 130.795 18.4619 131.654 16.132H113.896Z" fill="#37A72E"/>
<path d="M113.148 8C113.475 12.0294 117.38 15.2183 122.144 15.2183C122.163 15.2183 131.888 15.2183 131.888 15.2183C131.963 14.8528 132 14.469 132 14.0761C132 10.732 129.244 8.02741 125.834 8H113.148Z" fill="url(#paint0_linear)"/>
<path d="M104.853 15.1178V15.1086V15.1178C104.918 15.0081 105.021 14.9442 105.152 14.9442C105.339 14.9442 105.479 15.0904 105.488 15.264V25.9086H111.093V8H105.488C104.778 8.02741 103.975 8.52995 103.676 9.16041L99.2197 18.5168C99.2104 18.5533 99.1917 18.5898 99.173 18.6264C99.1076 18.7178 98.9955 18.7817 98.8647 18.7817C98.6592 18.7817 98.491 18.6173 98.491 18.4162V8H92.886V25.9086H98.491C99.1917 25.8721 99.9764 25.3695 100.275 24.7482L104.853 15.1452C104.843 15.136 104.853 15.1269 104.853 15.1178Z" fill="#37A72E"/>
<path d="M83.9273 15.4284L80.6483 25.9086H76.6127L73.3337 15.4193C73.3057 15.2548 73.1562 15.1269 72.9787 15.1269C72.7732 15.1269 72.6051 15.2914 72.6051 15.4832V25.8995H67V8H71.811H73.2403C74.2679 8 75.3515 8.78579 75.6505 9.74518L78.3783 18.4711C78.5184 18.9096 78.7333 18.9005 78.8734 18.4711L81.6012 9.74518C81.9095 8.78579 82.9838 8 84.0207 8H85.45H90.261V25.9086H84.6559V15.4924C84.6559 15.4924 84.6559 15.4924 84.6559 15.4832C84.6559 15.2822 84.4878 15.1269 84.2916 15.1269C84.1048 15.1269 83.9553 15.2548 83.9273 15.4284Z" fill="#37A72E"/>
<path d="M172.032 8.34412H161.997V24.6272H172.032V8.34412Z" fill="#FF5F00"/>
<path d="M163.009 16.5144C163.009 13.3498 164.484 10.3291 167 8.37283C162.489 4.83428 155.924 5.61103 152.367 10.0989C148.81 14.5869 149.591 21.1174 154.131 24.6271C157.919 27.5903 163.212 27.5903 167 24.6559C164.484 22.6709 163.009 19.6789 163.009 16.5144Z" fill="#EB001B"/>
<path d="M182.848 22.9299V22.5846H182.992V22.5271H182.645V22.5846H182.79V22.9299H182.848ZM183.513 22.9299V22.5271H183.397L183.282 22.8148L183.166 22.5271H183.05V22.9299H183.137V22.6134L183.253 22.8723H183.339L183.455 22.6134V22.9299H183.513Z" fill="#F79E1B"/>
<path d="M183.831 16.5144C183.831 22.2393 179.175 26.8711 173.42 26.8711C171.078 26.8711 168.822 26.0943 167 24.6559C171.511 21.1174 172.292 14.5869 168.764 10.0989C168.244 9.43726 167.665 8.86189 167 8.34405C171.511 4.8055 178.076 5.58225 181.633 10.0989C183.05 11.9114 183.831 14.1841 183.831 16.5144Z" fill="#F79E1B"/>
<defs>
<linearGradient id="paint0_linear" x1="113.15" y1="11.6093" x2="131.998" y2="11.6093" gradientUnits="userSpaceOnUse">
<stop stop-color="#00A0E5"/>
<stop offset="1" stop-color="#0077C3"/>
</linearGradient>
<clipPath id="clip0">
<path d="M0 8H51V25H0V8Z" fill="white"/>
</clipPath>
</defs>
</svg>
