<svg width="32" height="15" viewBox="0 0 32 15" fill="none" xmlns="http://www.w3.org/2000/svg">
<path d="M13.8662 12.512H11.2858L12.9021 2.18976H15.4967L13.8662 12.512Z" fill="#00579F"/>
<path d="M23.2664 2.438C22.7559 2.2336 21.9478 2 20.9411 2C18.3749 2 16.5743 3.40161 16.5601 5.41641C16.5459 6.90562 17.8503 7.72323 18.8286 8.21963C19.8353 8.73063 20.1755 9.05183 20.1755 9.50443C20.1613 10.1906 19.3674 10.5118 18.6159 10.5118C17.5809 10.5118 17.028 10.3512 16.1773 9.95703L15.837 9.79643L15.4967 12.1178C16.1064 12.4098 17.2265 12.658 18.3891 12.6726C21.1113 12.6726 22.8835 11.2856 22.8977 9.13943C22.9119 7.95683 22.2172 7.06622 20.7143 6.32162C19.8069 5.85442 19.2539 5.53322 19.2539 5.05141C19.2681 4.61341 19.7218 4.16081 20.7427 4.16081C21.5792 4.13161 22.203 4.35061 22.6709 4.55501L22.9261 4.67181L23.2664 2.438Z" fill="#00579F"/>
<path d="M26.7115 8.86199C26.9242 8.26338 27.7465 5.97117 27.7465 5.97117C27.7324 6.00037 27.9592 5.37257 28.0868 4.97837L28.2711 5.86897C28.2711 5.86897 28.7674 8.33638 28.8666 8.86199C28.4696 8.86199 27.2361 8.86199 26.7115 8.86199ZM29.9158 2.18976H27.9167C27.2928 2.18976 26.825 2.37956 26.5556 3.05116L22.6991 12.5266H25.4213C25.4213 12.5266 25.875 11.2564 25.9601 10.979C26.2578 10.979 28.9092 10.979 29.292 10.979C29.3629 11.344 29.6039 12.5266 29.6039 12.5266H32L29.9158 2.18976Z" fill="#00579F"/>
<path d="M9.11652 2.18976L6.57863 9.22699L6.29507 7.79618C5.82719 6.16098 4.35267 4.36517 2.70801 3.47456L5.03322 12.4974H7.7696L11.8529 2.18976H9.11652Z" fill="#00579F"/>
<path d="M4.2109 2.18976H0.0425345L0 2.39416C3.26097 3.25556 5.41604 5.31417 6.29508 7.79618L5.38768 3.05116C5.2459 2.39416 4.77802 2.20436 4.2109 2.18976Z" fill="#FAA61A"/>
</svg>
