<?xml version="1.0" encoding="UTF-8" standalone="no"?>
<!-- Created with Inkscape (http://www.inkscape.org/) -->

<svg
   xmlns:dc="http://purl.org/dc/elements/1.1/"
   xmlns:cc="http://creativecommons.org/ns#"
   xmlns:rdf="http://www.w3.org/1999/02/22-rdf-syntax-ns#"
   xmlns:svg="http://www.w3.org/2000/svg"
   xmlns="http://www.w3.org/2000/svg"
   xmlns:sodipodi="http://sodipodi.sourceforge.net/DTD/sodipodi-0.dtd"
   xmlns:inkscape="http://www.inkscape.org/namespaces/inkscape"
   width="262"
   height="89"
   viewBox="0 0 69.320829 23.547932"
   version="1.1"
   id="svg831"
   inkscape:version="0.92.3 (2405546, 2018-03-11)"
   sodipodi:docname="impay_web.svg">
  <defs
     id="defs825" />
  <sodipodi:namedview
     id="base"
     pagecolor="#ffffff"
     bordercolor="#666666"
     borderopacity="1.0"
     inkscape:pageopacity="0.0"
     inkscape:pageshadow="2"
     inkscape:zoom="1.979899"
     inkscape:cx="102.42268"
     inkscape:cy="41.466332"
     inkscape:document-units="mm"
     inkscape:current-layer="layer1"
     showgrid="false"
     units="px"
     inkscape:window-width="1680"
     inkscape:window-height="988"
     inkscape:window-x="-8"
     inkscape:window-y="-8"
     inkscape:window-maximized="1" />
  <metadata
     id="metadata828">
    <rdf:RDF>
      <cc:Work
         rdf:about="">
        <dc:format>image/svg+xml</dc:format>
        <dc:type
           rdf:resource="http://purl.org/dc/dcmitype/StillImage" />
        <dc:title></dc:title>
      </cc:Work>
    </rdf:RDF>
  </metadata>
  <g
     inkscape:label="Layer 1"
     inkscape:groupmode="layer"
     id="layer1"
     transform="translate(0,-273.45182)">
    <g
       id="g954">
      <g
         id="text4302-6"
         style="font-style:normal;font-variant:normal;font-weight:normal;font-stretch:normal;font-size:13.11524677px;line-height:125%;font-family:Carlito;-inkscape-font-specification:Carlito;letter-spacing:0px;word-spacing:0px;fill:#1a1f70;fill-opacity:1;stroke:none;stroke-width:0.28222221px;stroke-linecap:butt;stroke-linejoin:miter;stroke-opacity:1"
         transform="scale(1.0326966,0.96833861)"
         aria-label="IMPAY">
        <path
           id="path891"
           style="font-style:normal;font-variant:normal;font-weight:normal;font-stretch:normal;font-size:14.57249737px;font-family:Carlito;-inkscape-font-specification:Carlito;fill:#1a1f70;fill-opacity:1;stroke-width:0.28222221px"
           d="m 32.28895,296.05481 h -1.295016 v -9.34974 h 1.295016 z" />
        <path
           id="path893"
           style="font-style:normal;font-variant:normal;font-weight:normal;font-stretch:normal;font-size:14.57249737px;font-family:Carlito;-inkscape-font-specification:Carlito;fill:#1a1f70;fill-opacity:1;stroke-width:0.28222221px"
           d="m 39.418659,292.6465 q 0.0925,0.16365 0.163656,0.33442 0.07827,0.17077 0.149425,0.34866 0.07115,-0.185 0.142309,-0.35577 0.07827,-0.17077 0.163656,-0.32731 l 3.301582,-5.72796 q 0.08539,-0.14943 0.185002,-0.17789 0.09962,-0.0356 0.270388,-0.0356 h 0.953474 v 9.34974 h -1.145592 v -6.82374 q 0,-0.14231 0.0071,-0.31308 0.01423,-0.17789 0.02846,-0.35578 l -3.337159,5.86316 q -0.163656,0.29173 -0.469622,0.29173 h -0.185002 q -0.305966,0 -0.469622,-0.29173 l -3.415429,-5.85604 q 0.04269,0.35577 0.04269,0.66174 v 6.82374 H 34.66552 v -9.34974 h 0.953474 q 0.170771,0 0.263272,0.0356 0.09962,0.0285 0.192118,0.185 l 3.344275,5.72085 z" />
        <path
           id="path895"
           style="font-style:normal;font-variant:normal;font-weight:normal;font-stretch:normal;font-size:14.57249737px;font-family:Carlito;-inkscape-font-specification:Carlito;fill:#1a1f70;fill-opacity:1;stroke-width:0.28222221px"
           d="m 48.284544,292.56823 v 3.48658 h -1.295017 v -9.34974 h 2.682535 q 0.853857,0 1.480019,0.20635 0.633278,0.20635 1.045976,0.58347 0.412697,0.37712 0.611931,0.9179 0.206348,0.53366 0.206348,1.1954 0,0.65462 -0.220579,1.1954 -0.213465,0.54077 -0.640393,0.93924 -0.419814,0.39135 -1.045976,0.61193 -0.619046,0.21347 -1.437326,0.21347 z m 0,-1.02463 h 1.387518 q 0.498083,0 0.882319,-0.14231 0.384236,-0.14231 0.640393,-0.39847 0.263273,-0.25616 0.391351,-0.61193 0.135195,-0.35577 0.135195,-0.7827 0,-0.89655 -0.505199,-1.38752 -0.505199,-0.49808 -1.544059,-0.49808 h -1.387518 z" />
        <path
           id="path897"
           style="font-style:normal;font-variant:normal;font-weight:normal;font-stretch:normal;font-size:14.57249737px;font-family:Carlito;-inkscape-font-specification:Carlito;fill:#1a1f70;fill-opacity:1;stroke-width:0.28222221px"
           d="m 60.786436,296.05481 h -1.003282 q -0.170772,0 -0.277504,-0.0854 -0.09962,-0.0854 -0.156541,-0.21346 l -0.796933,-2.24849 h -3.856589 l -0.789818,2.24137 q -0.04269,0.12097 -0.163656,0.21347 -0.113847,0.0925 -0.277503,0.0925 h -1.003282 l 3.50793,-9.34974 h 1.316363 z m -5.763537,-3.47235 h 3.201965 l -1.323479,-3.76409 q -0.07115,-0.17077 -0.142309,-0.39847 -0.07115,-0.22769 -0.135194,-0.49097 -0.07116,0.27039 -0.14231,0.49809 -0.07115,0.22769 -0.135194,0.39846 z" />
        <path
           id="path899"
           style="font-style:normal;font-variant:normal;font-weight:normal;font-stretch:normal;font-size:14.57249737px;font-family:Carlito;-inkscape-font-specification:Carlito;fill:#1a1f70;fill-opacity:1;stroke-width:0.28222221px"
           d="m 63.974171,292.31918 v 3.73563 h -1.295017 v -3.7214 l -2.903115,-5.62834 h 1.138476 q 0.163656,0 0.263273,0.0854 0.106732,0.0783 0.177887,0.21346 l 1.600982,3.60755 q 0.120964,0.22058 0.213465,0.41981 0.0925,0.19212 0.163656,0.38424 0.07115,-0.19212 0.15654,-0.38424 0.0925,-0.19923 0.213465,-0.4127 l 1.586751,-3.61466 q 0.05692,-0.10673 0.163656,-0.19923 0.106732,-0.0996 0.270388,-0.0996 h 1.152707 z" />
      </g>
      <path
         inkscape:export-filename="C:\Fintex\ФинТех\QRоплата\logo_new\text4510.png"
         inkscape:export-ydpi="177.25169"
         inkscape:export-xdpi="177.25169"
         inkscape:connector-curvature="0"
         id="path4147-3"
         d="m 11.621501,279.47502 c -0.650872,0.008 -1.190348,0.26271 -1.492885,0.71508 -0.2385876,0.35674 -0.3371368,0.75734 -0.3402074,1.37849 -0.00198,0.37883 -0.00198,0.3789 0.0499,0.45932 0.030469,0.0474 0.08612,0.0984 0.1355796,0.12349 v -5.6e-4 c 0.1464838,0.0743 0.3212788,0.0532 0.4304248,-0.0527 0.10234,-0.0993 0.113897,-0.14699 0.131547,-0.52391 0.02421,-0.51695 0.08162,-0.74889 0.238399,-0.96722 0.145499,-0.20261 0.361318,-0.30678 0.71116,-0.34358 0.136077,-0.0142 0.252008,-0.0143 0.383049,5.6e-4 0.303169,0.0342 0.462362,0.0973 0.619433,0.24542 0.222992,0.21037 0.30476,0.47532 0.333152,1.08141 0.01586,0.33884 0.01761,0.3499 0.07207,0.42884 0.08711,0.12624 0.145858,0.16137 0.285776,0.1705 0.177297,0.0116 0.290615,-0.0513 0.366922,-0.2046 0.0368,-0.0739 0.03865,-0.10376 0.02823,-0.43763 -0.01736,-0.55602 -0.100189,-0.91959 -0.283255,-1.24415 -0.2766,-0.49041 -0.725382,-0.75525 -1.384018,-0.81687 -0.09717,-0.009 -0.192289,-0.013 -0.28527,-0.0119 z m 0.05645,3.13519 c -1.7240473,1e-5 -3.4479227,0.008 -3.4862541,0.0227 -0.066508,0.0258 -0.1367649,0.091 -0.1708602,0.1581 -0.013942,0.0275 -0.3022769,1.48206 -0.6405992,3.23232 -0.5948963,3.0777 -0.6143075,3.18573 -0.5942302,3.29897 0.025767,0.14534 0.0861,0.23935 0.1869891,0.29089 0.076877,0.0394 0.12146,0.0398 4.7039446,0.0398 4.575474,1e-5 4.626935,-8.4e-4 4.704955,-0.0398 0.101772,-0.0509 0.162608,-0.14454 0.188502,-0.29089 0.02004,-0.1132 5.64e-4,-0.22224 -0.59272,-3.28967 -0.337442,-1.74492 -0.622769,-3.19578 -0.634046,-3.22457 -0.02622,-0.067 -0.108921,-0.14803 -0.178927,-0.17515 -0.03844,-0.0149 -1.762709,-0.0227 -3.486754,-0.0227 z m -1.9212952,0.81789 a 0.45617988,0.467641 0 0 1 0.4561302,0.46759 0.45617988,0.467641 0 0 1 -0.4561302,0.46811 0.45617988,0.467641 0 0 1 -0.4561304,-0.46811 0.45617988,0.467641 0 0 1 0.4561304,-0.46759 z m 3.5870552,0.008 a 0.45617988,0.467641 0 0 1 0.456633,0.46759 0.45617988,0.467641 0 0 1 -0.456633,0.46759 0.45617988,0.467641 0 0 1 -0.456133,-0.46759 0.45617988,0.467641 0 0 1 0.456133,-0.46759 z"
         style="fill:#1a1f70;fill-opacity:1;stroke-width:0.28222221" />
      <path
         id="rect4501-2-3-0"
         d="m 16.582558,273.96039 h 6.674449 v 0.72865 h -6.674449 z"
         style="fill:#f6850a;fill-opacity:1;stroke:#f6850a;stroke-width:0.52511907;stroke-opacity:1" />
      <path
         id="rect4501-2-3-3-3"
         d="M 0.46873379,273.96039 H 7.1431837 v 0.72865 H 0.46873379 Z"
         style="fill:#f6850a;fill-opacity:1;stroke:#f6850a;stroke-width:0.52511907;stroke-opacity:1" />
      <path
         id="rect4501-2-3-3-1-9"
         d="M 0.46873379,296.0195 H 7.1431842 v 0.72865 H 0.46873379 Z"
         style="fill:#f6850a;fill-opacity:1;stroke:#f6850a;stroke-width:0.52511913;stroke-opacity:1" />
      <path
         id="rect4501-2-3-3-8-3"
         d="m 16.582556,296.0195 h 6.67445 v 0.72865 h -6.67445 z"
         style="fill:#f6850a;fill-opacity:1;stroke:#f6850a;stroke-width:0.52511913;stroke-opacity:1" />
      <path
         id="rect4501-2-3-3-89-9"
         d="m -280.63486,0.46873379 h 6.67445 V 1.1973816 h -6.67445 z"
         style="fill:#f6850a;fill-opacity:1;stroke:#f6850a;stroke-width:0.52511913;stroke-opacity:1"
         transform="rotate(-90)" />
      <path
         id="rect4501-2-3-3-89-1-5"
         d="m -280.63486,22.528357 h 6.67445 v 0.728647 h -6.67445 z"
         style="fill:#f6850a;fill-opacity:1;stroke:#f6850a;stroke-width:0.52511913;stroke-opacity:1"
         transform="rotate(-90)" />
      <path
         id="rect4501-2-3-3-89-17-7"
         d="m -296.74817,0.46873379 h 6.67445 V 1.1973816 h -6.67445 z"
         style="fill:#f6850a;fill-opacity:1;stroke:#f6850a;stroke-width:0.52511913;stroke-opacity:1"
         transform="rotate(-90)" />
      <path
         id="rect4501-2-3-3-89-5-1"
         d="m -296.74817,22.528357 h 6.67445 v 0.728647 h -6.67445 z"
         style="fill:#f6850a;fill-opacity:1;stroke:#f6850a;stroke-width:0.52511913;stroke-opacity:1"
         transform="rotate(-90)" />
      <g
         id="text4510"
         style="font-style:normal;font-weight:normal;font-size:10.14737606px;line-height:6.3421092px;font-family:sans-serif;letter-spacing:0px;word-spacing:0px;fill:#f6850a;fill-opacity:1;stroke:none;stroke-width:0.25368437"
         aria-label="мгновенно">
        <path
           id="path902"
           style="font-style:normal;font-variant:normal;font-weight:normal;font-stretch:normal;font-size:8.11789989px;font-family:Carlito;-inkscape-font-specification:Carlito;fill:#f6850a;fill-opacity:1;stroke-width:0.25368437"
           d="m 34.032837,292.42476 q 0.04757,0.0832 0.0872,0.17837 0.0436,0.0951 0.07928,0.19026 0.03171,-0.0991 0.07135,-0.19422 0.0436,-0.0951 0.09117,-0.17441 l 1.177254,-2.00569 q 0.05549,-0.0912 0.122879,-0.12288 0.07135,-0.0317 0.142697,-0.0317 h 0.558899 v 3.8885 h -0.626284 v -2.55666 q 0,-0.10306 0.01189,-0.23783 0.01189,-0.13477 0.03171,-0.24972 l -1.33977,2.34262 q -0.03171,0.0595 -0.08324,0.0951 -0.05153,0.0357 -0.118915,0.0357 h -0.07928 q -0.06739,0 -0.118915,-0.0357 -0.04757,-0.0357 -0.07928,-0.0951 l -1.379409,-2.36244 q 0.02378,0.11892 0.03567,0.25765 0.01586,0.13873 0.01586,0.24972 v 2.55666 h -0.626284 v -3.8885 h 0.562862 q 0.07135,0 0.138734,0.0317 0.07135,0.0317 0.122878,0.12288 l 1.201037,2.00569 z" />
        <path
           id="path904"
           style="font-style:normal;font-variant:normal;font-weight:normal;font-stretch:normal;font-size:8.11789989px;font-family:Carlito;-inkscape-font-specification:Carlito;fill:#f6850a;fill-opacity:1;stroke-width:0.25368437"
           d="m 39.641641,290.27637 v 0.52719 h -1.54589 v 3.34942 h -0.697632 v -3.87661 z" />
        <path
           id="path906"
           style="font-style:normal;font-variant:normal;font-weight:normal;font-stretch:normal;font-size:8.11789989px;font-family:Carlito;-inkscape-font-specification:Carlito;fill:#f6850a;fill-opacity:1;stroke-width:0.25368437"
           d="m 43.514291,290.27637 v 3.87661 h -0.697632 v -1.8075 h -1.82732 v 1.8075 h -0.697633 v -3.87661 h 0.697633 v 1.54193 h 1.82732 v -1.54193 z" />
        <path
           id="path908"
           style="font-style:normal;font-variant:normal;font-weight:normal;font-stretch:normal;font-size:8.11789989px;font-family:Carlito;-inkscape-font-specification:Carlito;fill:#f6850a;fill-opacity:1;stroke-width:0.25368437"
           d="m 44.37444,294.15298 z m 1.847139,-3.93607 q 0.424128,0 0.765017,0.1427 0.340888,0.13873 0.578717,0.40035 0.237829,0.25764 0.364672,0.62628 0.130806,0.36863 0.130806,0.82447 0,0.45981 -0.130806,0.82844 -0.126843,0.36864 -0.364672,0.63025 -0.237829,0.25765 -0.578717,0.40034 -0.340889,0.13874 -0.765017,0.13874 -0.424129,0 -0.768981,-0.13874 -0.340888,-0.14269 -0.582681,-0.40034 -0.237829,-0.26161 -0.368635,-0.63025 -0.126842,-0.36863 -0.126842,-0.82844 0,-0.45584 0.126842,-0.82447 0.130806,-0.36864 0.368635,-0.62628 0.241793,-0.26162 0.582681,-0.40035 0.344852,-0.1427 0.768981,-0.1427 z m 0,3.44852 q 0.281431,0 0.491513,-0.0951 0.210083,-0.0991 0.348816,-0.28539 0.142698,-0.1863 0.210083,-0.45584 0.07135,-0.26954 0.07135,-0.61439 0,-0.34485 -0.07135,-0.61439 -0.06739,-0.26954 -0.210083,-0.45584 -0.138733,-0.1863 -0.348816,-0.2854 -0.210082,-0.0991 -0.491513,-0.0991 -0.285395,0 -0.499441,0.0991 -0.210083,0.0991 -0.35278,0.2854 -0.138734,0.1863 -0.210082,0.45584 -0.06739,0.26954 -0.06739,0.61439 0,0.34485 0.06739,0.61439 0.07135,0.26954 0.210082,0.45584 0.142697,0.1863 0.35278,0.28539 0.214046,0.0951 0.499441,0.0951 z" />
        <path
           id="path910"
           style="font-style:normal;font-variant:normal;font-weight:normal;font-stretch:normal;font-size:8.11789989px;font-family:Carlito;-inkscape-font-specification:Carlito;fill:#f6850a;fill-opacity:1;stroke-width:0.25368437"
           d="m 48.924904,290.27637 h 1.438866 q 0.360708,0 0.618356,0.0713 0.261612,0.0713 0.428092,0.19819 0.16648,0.12288 0.241793,0.29332 0.07928,0.16648 0.07928,0.36071 0,0.12684 -0.03567,0.26558 -0.03567,0.13477 -0.122878,0.26161 -0.08324,0.12684 -0.233866,0.2299 -0.146661,0.10306 -0.372599,0.15855 0.443948,0.0753 0.689705,0.30522 0.24972,0.2299 0.24972,0.61042 0,0.28144 -0.118914,0.49152 -0.114951,0.21008 -0.313142,0.35278 -0.198191,0.13873 -0.46773,0.21008 -0.26954,0.0674 -0.57079,0.0674 h -1.510215 z m 0.665921,2.11272 v 1.28031 h 0.84033 q 0.190263,0 0.344852,-0.0436 0.154589,-0.0476 0.261612,-0.13477 0.107023,-0.0872 0.166481,-0.21009 0.05946,-0.12287 0.05946,-0.2735 0,-0.13477 -0.0436,-0.24576 -0.03964,-0.11495 -0.138734,-0.19819 -0.09909,-0.0832 -0.257648,-0.12684 -0.158553,-0.0476 -0.388454,-0.0476 z m 0,-0.43999 h 0.749162 q 0.170444,0 0.313142,-0.0476 0.146661,-0.0476 0.24972,-0.13081 0.10306,-0.0872 0.158553,-0.20612 0.05946,-0.12288 0.05946,-0.26557 0,-0.10703 -0.03964,-0.20612 -0.03964,-0.0991 -0.130806,-0.17837 -0.09117,-0.0793 -0.241793,-0.12685 -0.146661,-0.0476 -0.364671,-0.0476 h -0.753126 z" />
        <path
           id="path912"
           style="font-style:normal;font-variant:normal;font-weight:normal;font-stretch:normal;font-size:8.11789989px;font-family:Carlito;-inkscape-font-specification:Carlito;fill:#f6850a;fill-opacity:1;stroke-width:0.25368437"
           d="m 52.539905,294.15298 z m 1.823356,-3.93607 q 0.348816,0 0.646103,0.11495 0.297286,0.11495 0.515296,0.33693 0.21801,0.22197 0.340888,0.54304 0.122879,0.32107 0.122879,0.73727 0,0.16252 -0.03568,0.21801 -0.03567,0.0515 -0.130806,0.0515 h -2.592337 q 0.0079,0.36467 0.0991,0.63818 0.09117,0.26954 0.24972,0.44791 0.162517,0.17837 0.384491,0.26954 0.221974,0.0872 0.495477,0.0872 0.253684,0 0.439984,-0.0555 0.186299,-0.0595 0.317105,-0.13081 0.13477,-0.0713 0.225938,-0.12684 0.09117,-0.0595 0.158553,-0.0595 0.0436,0 0.07531,0.0198 0.03171,0.0159 0.05549,0.0476 l 0.198191,0.25368 q -0.130806,0.15459 -0.309178,0.26954 -0.174408,0.11099 -0.376563,0.1863 -0.202155,0.0713 -0.420165,0.10702 -0.214046,0.0357 -0.424128,0.0357 -0.40431,0 -0.745198,-0.13477 -0.340888,-0.13477 -0.590609,-0.39638 -0.245757,-0.26558 -0.38449,-0.65007 -0.138734,-0.38845 -0.138734,-0.89186 0,-0.40431 0.122878,-0.75312 0.126842,-0.35278 0.360708,-0.61043 0.237829,-0.26161 0.574753,-0.40828 0.340889,-0.14666 0.765017,-0.14666 z m 0.01189,0.50737 q -0.48755,0 -0.772945,0.2854 -0.281431,0.28539 -0.35278,0.78087 h 2.112716 q 0,-0.23387 -0.06739,-0.42809 -0.06739,-0.19819 -0.194227,-0.33693 -0.126843,-0.1427 -0.313142,-0.22197 -0.182336,-0.0793 -0.412237,-0.0793 z" />
        <path
           id="path914"
           style="font-style:normal;font-variant:normal;font-weight:normal;font-stretch:normal;font-size:8.11789989px;font-family:Carlito;-inkscape-font-specification:Carlito;fill:#f6850a;fill-opacity:1;stroke-width:0.25368437"
           d="m 60.067196,290.27637 v 3.87661 h -0.697632 v -1.8075 h -1.82732 v 1.8075 h -0.697632 v -3.87661 h 0.697632 v 1.54193 h 1.82732 v -1.54193 z" />
        <path
           id="path916"
           style="font-style:normal;font-variant:normal;font-weight:normal;font-stretch:normal;font-size:8.11789989px;font-family:Carlito;-inkscape-font-specification:Carlito;fill:#f6850a;fill-opacity:1;stroke-width:0.25368437"
           d="m 64.411541,290.27637 v 3.87661 h -0.697632 v -1.8075 h -1.82732 v 1.8075 h -0.697632 v -3.87661 h 0.697632 v 1.54193 h 1.82732 v -1.54193 z" />
        <path
           id="path918"
           style="font-style:normal;font-variant:normal;font-weight:normal;font-stretch:normal;font-size:8.11789989px;font-family:Carlito;-inkscape-font-specification:Carlito;fill:#f6850a;fill-opacity:1;stroke-width:0.25368437"
           d="m 65.271692,294.15298 z m 1.847139,-3.93607 q 0.424129,0 0.765017,0.1427 0.340888,0.13873 0.578717,0.40035 0.237829,0.25764 0.364672,0.62628 0.130806,0.36863 0.130806,0.82447 0,0.45981 -0.130806,0.82844 -0.126843,0.36864 -0.364672,0.63025 -0.237829,0.25765 -0.578717,0.40034 -0.340888,0.13874 -0.765017,0.13874 -0.424129,0 -0.768981,-0.13874 -0.340888,-0.14269 -0.582681,-0.40034 -0.237829,-0.26161 -0.368635,-0.63025 -0.126842,-0.36863 -0.126842,-0.82844 0,-0.45584 0.126842,-0.82447 0.130806,-0.36864 0.368635,-0.62628 0.241793,-0.26162 0.582681,-0.40035 0.344852,-0.1427 0.768981,-0.1427 z m 0,3.44852 q 0.281431,0 0.491513,-0.0951 0.210083,-0.0991 0.348816,-0.28539 0.142698,-0.1863 0.210083,-0.45584 0.07135,-0.26954 0.07135,-0.61439 0,-0.34485 -0.07135,-0.61439 -0.06739,-0.26954 -0.210083,-0.45584 -0.138733,-0.1863 -0.348816,-0.2854 -0.210082,-0.0991 -0.491513,-0.0991 -0.285395,0 -0.499441,0.0991 -0.210082,0.0991 -0.35278,0.2854 -0.138734,0.1863 -0.210082,0.45584 -0.06739,0.26954 -0.06739,0.61439 0,0.34485 0.06739,0.61439 0.07135,0.26954 0.210082,0.45584 0.142698,0.1863 0.35278,0.28539 0.214046,0.0951 0.499441,0.0951 z" />
      </g>
    </g>
  </g>
</svg>
