<svg width="370" height="246" viewBox="0 0 370 246" fill="none" xmlns="http://www.w3.org/2000/svg">
  <g clip-path="url(#clip0)">
    <path d="M307.447 244.839C330.949 244.839 350 242.372 350 239.328C350 236.284 330.949 233.817 307.447 233.817C283.946 233.817 264.895 236.284 264.895 239.328C264.895 242.372 283.946 244.839 307.447 244.839Z" fill="#282333"/>
    <path d="M148.464 8.92505H20V88.9057H148.464V8.92505Z" fill="#14121A"/>
    <path d="M156.567 1.13283H28.1025V81.1135H156.567V1.13283Z" stroke="white" stroke-miterlimit="10"/>
    <path d="M112.067 60.5208C115.94 56.6552 118.578 51.7302 119.646 46.3685C120.715 41.0068 120.167 35.4492 118.07 30.3986C115.974 25.348 112.424 21.0312 107.869 17.994C103.315 14.9568 97.96 13.3357 92.4822 13.3357V40.9761L112.067 60.5208Z" fill="#3F3D56"/>
    <path d="M92.4823 13.3357C86.3263 13.3365 80.346 15.3837 75.4857 19.1541C70.6254 22.9246 67.1621 28.2033 65.6428 34.1568C64.1235 40.1103 64.6346 46.3993 67.0956 52.0305C69.5566 57.6618 73.8272 62.3145 79.2328 65.2538L92.4823 40.9761V13.3357Z" fill="#6B67E9"/>
    <path d="M112.067 60.5209L92.4822 40.9762L79.2327 65.2539C84.4847 68.1056 90.5201 69.1856 96.4377 68.3326C102.355 67.4795 107.838 64.7393 112.067 60.5209Z" fill="#74698C"/>
    <path d="M38.2679 64.4998H32.9644V69.7927H38.2679V64.4998Z" fill="#6C63FF"/>
    <path d="M45.9286 64.4998H40.625V69.7927H45.9286V64.4998Z" fill="#3F3D56"/>
    <path d="M53.5892 64.4998H48.2856V69.7927H53.5892V64.4998Z" fill="#74698C"/>
    <path d="M146.402 65.6761H124.598V66.5582H146.402V65.6761Z" fill="#E1EAE7"/>
    <path d="M146.402 68.3222H124.598V69.2043H146.402V68.3222Z" fill="#E1EAE7"/>
    <path d="M146.402 70.9687H124.598V71.8509H146.402V70.9687Z" fill="#E1EAE7"/>
    <path d="M133.438 120.368H60.3662V200.349H133.438V120.368Z" fill="#14121A"/>
    <path d="M140.804 112.723H67.7322V192.704H140.804V112.723Z" stroke="white" stroke-miterlimit="10"/>
    <path d="M75.5023 183.681H71.5625V187.613H75.5023V183.681Z" fill="#6C63FF"/>
    <path d="M81.1932 183.681H77.2534V187.613H81.1932V183.681Z" fill="#3F3D56"/>
    <path d="M86.8839 183.681H82.9441V187.613H86.8839V183.681Z" fill="#74698C"/>
    <path d="M131.08 185.389H115.759V186.009H131.08V185.389Z" fill="#E1EAE7"/>
    <path d="M131.08 187.248H115.759V187.868H131.08V187.248Z" fill="#E1EAE7"/>
    <path d="M131.08 189.108H115.759V189.728H131.08V189.108Z" fill="#E1EAE7"/>
    <path d="M104.268 126.838V133.307C108.114 133.307 111.874 134.445 115.072 136.577C118.27 138.71 120.762 141.741 122.234 145.287C123.706 148.833 124.091 152.735 123.341 156.5C122.59 160.265 120.738 163.723 118.019 166.437L122.602 171.011C126.228 167.392 128.698 162.782 129.698 157.762C130.699 152.743 130.185 147.54 128.223 142.812C126.26 138.083 122.937 134.042 118.673 131.199C114.409 128.355 109.396 126.838 104.268 126.838Z" fill="#3F3D56"/>
    <path d="M122.602 171.011L118.018 166.437C114.694 169.755 110.276 171.759 105.585 172.077C100.893 172.394 96.2454 171.004 92.5023 168.163L88.5789 173.315C93.5706 177.101 99.7679 178.954 106.023 178.531C112.279 178.107 118.168 175.436 122.602 171.011Z" fill="#74698C"/>
    <path d="M84.8215 152.714C84.8215 147.567 86.8703 142.631 90.5172 138.991C94.1642 135.351 99.1104 133.307 104.268 133.307V126.838C98.8401 126.838 93.5491 128.538 89.1407 131.698C84.7324 134.858 81.4289 139.319 79.6961 144.453C77.9633 149.586 77.8885 155.133 79.4822 160.311C81.0758 165.489 84.2577 170.038 88.5792 173.315L92.5026 168.163C90.1137 166.355 88.177 164.019 86.8444 161.339C85.5117 158.658 84.8193 155.706 84.8215 152.714Z" fill="#6B67E9"/>
    <path d="M294.497 42.2972C294.497 42.2972 293.294 51.21 296.386 52.2383C299.477 53.2667 298.619 61.1511 298.619 61.1511L289.344 68.1784L281.101 68.864L279.04 58.2373L280.242 55.4949C280.242 55.4949 284.879 50.0102 281.616 44.354C278.353 38.6978 294.497 42.2972 294.497 42.2972Z" fill="white"/>
    <path d="M285.909 111.714L275.089 137.081C275.089 137.081 266.674 132.282 261.693 132.796C256.712 133.31 250.53 127.311 250.53 127.311L256.712 97.4876L268.219 65.7788L284.192 75.8913L285.909 111.714Z" fill="#575A89"/>
    <path d="M285.909 111.714L275.089 137.081C275.089 137.081 266.674 132.282 261.693 132.796C256.712 133.31 250.53 127.311 250.53 127.311L256.712 97.4876L268.219 65.7788L284.192 75.8913L285.909 111.714Z" fill="#6F1BA7"/>
    <path d="M302.912 219.524V227.751H295.184L296.386 218.152L302.912 219.524Z" fill="white"/>
    <path d="M323.006 205.297L328.674 208.725L324.552 218.152L320.259 217.638L316.136 211.811L323.006 205.297Z" fill="white"/>
    <path d="M304.458 109.314L314.591 133.139C314.591 133.139 310.984 159.534 311.156 161.762C311.328 163.991 311.499 164.848 310.641 166.733C309.782 168.618 309.438 169.818 309.954 172.046C310.469 174.274 310.641 175.131 310.297 175.988C309.954 176.845 307.549 212.154 306.347 214.553C305.145 216.953 307.034 220.895 305.832 221.238C304.629 221.581 295.699 220.724 295.183 218.667C294.668 216.61 296.901 211.639 295.699 210.097C294.496 208.554 295.87 153.021 294.153 149.25C292.435 145.48 273.543 142.052 273.543 142.052C273.543 142.052 271.826 131.082 272.856 129.368C273.887 127.654 275.261 116.856 275.261 116.856L304.458 109.314Z" fill="#524EC6"/>
    <path d="M294.496 226.379C294.496 226.379 299.305 220.723 303.427 226.379C303.427 226.379 303.771 233.064 306.69 234.435C309.61 235.806 308.236 241.291 304.114 241.463C299.992 241.634 294.668 242.32 294.496 240.091C294.325 237.863 295.183 236.492 293.638 235.806C292.092 235.121 293.638 231.179 293.638 231.179L294.496 226.379Z" fill="url(#paint0_linear)"/>
    <path d="M295.012 144.451C295.012 144.451 294.84 156.792 293.638 158.506C292.435 160.22 291.748 161.248 292.435 163.134C293.122 165.019 294.153 168.447 293.638 169.132C293.122 169.818 294.153 173.417 294.153 173.417C294.153 173.417 307.377 179.759 313.56 192.957C313.56 192.957 319.915 203.412 321.804 203.584C323.693 203.755 325.926 202.384 324.895 206.326C323.865 210.268 319.915 215.41 316.995 214.896C314.075 214.382 311.843 209.411 311.843 209.411C311.843 209.411 289 186.272 286.596 185.587C284.191 184.901 277.322 179.416 276.119 175.988C274.917 172.56 272.341 143.937 273.543 142.051C274.745 140.166 279.211 137.595 279.211 137.595L295.012 144.451Z" fill="#534FC7"/>
    <path d="M324.724 204.612C324.724 204.612 335.372 204.955 335.544 207.526C335.716 210.097 331.079 225.351 331.765 228.95C332.452 232.55 326.441 240.777 322.491 239.063C318.541 237.349 321.632 228.436 321.632 228.436C321.632 228.436 317.682 216.267 318.369 216.096C319.056 215.924 325.926 213.867 325.583 211.811C325.239 209.754 324.724 204.612 324.724 204.612Z" fill="url(#paint1_linear)"/>
    <path d="M286.511 51.4671C292.391 51.4671 297.159 46.0178 297.159 39.2957C297.159 32.5736 292.391 27.1243 286.511 27.1243C280.63 27.1243 275.862 32.5736 275.862 39.2957C275.862 46.0178 280.63 51.4671 286.511 51.4671Z" fill="white"/>
    <path d="M297.244 57.2089C297.244 57.2089 291.405 63.3793 287.111 62.3509C282.818 61.3225 280.585 53.9523 280.585 53.9523L272.856 52.5811C272.856 52.5811 267.361 76.9197 267.361 79.3193C267.361 81.7189 272.856 107.6 272.856 112.228C272.856 116.856 268.391 119.598 275.261 119.427C282.131 119.255 278.868 117.027 288.829 116.856C298.79 116.684 300.336 118.912 302.397 115.313C303.802 112.965 307.611 114.086 309.623 112.228L303.943 96.2878L303.427 60.4655C303.427 60.4655 299.024 51.8955 297.018 52.5811C297.018 52.5811 298.103 56.3519 297.244 57.2089Z" fill="#FECA24"/>
    <path d="M295.129 51.0655C295.129 51.0655 304.286 52.0672 306.862 53.9526C309.439 55.838 316.652 57.2092 316.48 58.5804C316.308 59.9516 308.065 79.491 308.065 79.491C308.065 79.491 304.286 94.9169 307.549 98.5163C310.813 102.116 323.007 141.366 320.946 144.623C318.885 147.879 312.358 134.681 312.358 134.681C312.358 134.681 303.599 106.401 298.79 101.601C293.981 96.8023 293.638 70.9211 293.638 69.7213C293.638 68.5215 295.129 51.0655 295.129 51.0655Z" fill="#9736DA"/>
    <path d="M281.735 53.0534C281.735 53.0534 270.452 48.8105 266.502 50.5245C262.552 52.2385 260.147 52.5813 260.147 52.5813L258.773 69.3784C258.773 69.3784 258.258 93.5456 253.793 99.3732C249.327 105.201 246.407 129.539 247.094 131.939C247.781 134.339 245.892 138.452 248.812 137.424C251.732 136.395 259.804 112.742 259.804 112.742C259.804 112.742 259.804 99.2018 264.613 95.431C269.421 91.6602 277.322 76.063 277.665 72.2922C278.009 68.5214 281.272 58.0661 281.272 58.0661L281.735 53.0534Z" fill="#9736DA"/>
    <path d="M261.865 52.5812H260.147C260.147 52.5812 258.43 51.2101 256.369 52.067C254.308 52.924 249.499 51.7242 249.499 52.2384C249.499 52.7526 244.175 50.6959 241.942 51.7242C239.709 52.7526 231.637 53.0954 231.637 53.0954C231.637 53.0954 228.374 61.3226 230.607 62.8652C232.84 64.4078 236.103 63.208 237.648 64.4078C239.194 65.6075 242.114 64.2363 243.144 65.7789C244.175 67.3215 247.953 70.0639 248.812 68.3499C249.671 66.6359 247.953 65.0934 251.56 66.9787C255.167 68.8641 260.834 68.8641 260.834 68.8641L261.865 52.5812Z" fill="#9736DA"/>
    <path d="M287.47 32.9888C286.029 32.6565 284.533 33.0247 283.074 33.2634C281.615 33.5021 280.006 33.5808 278.772 32.7681C277.86 32.168 277.299 31.1751 276.773 30.2201C276.553 29.879 276.407 29.4962 276.343 29.0958C276.281 28.3895 276.731 27.7451 277.209 27.2206C279.43 24.7845 282.675 23.4511 285.948 23.0276C288.638 22.6794 291.443 22.9126 293.927 24C296.412 25.0874 298.547 27.0788 299.524 29.6045C299.974 30.8971 300.255 32.2423 300.36 33.6067C300.507 34.6106 300.526 35.6291 300.416 36.6377C300.285 37.3854 300.088 38.1202 299.828 38.8336L298.21 43.7092C298.093 44.1699 297.876 44.5991 297.574 44.9659C297.418 45.1456 297.208 45.2701 296.976 45.3209C296.744 45.3717 296.501 45.3461 296.285 45.2477C296.414 44.7182 296.434 44.1678 296.343 43.6304C296.292 43.3625 296.162 43.1159 295.97 42.9224C295.778 42.7288 295.532 42.5972 295.264 42.5444C294.667 42.4812 294.158 42.9426 293.592 43.1413C293.32 43.2218 293.034 43.2452 292.753 43.21C292.471 43.1749 292.2 43.082 291.956 42.9371C291.712 42.7923 291.501 42.5986 291.336 42.3683C291.17 42.138 291.055 41.8761 290.996 41.5991C290.907 41.0417 291.057 40.4449 290.845 39.9215C290.597 39.3082 289.939 38.9869 289.445 38.5462C288.994 38.1309 288.671 37.5958 288.515 37.0038C288.358 36.4118 288.374 35.7874 288.561 35.2042C288.693 34.7984 289.067 34.6139 288.992 34.1478C288.894 33.5363 287.991 33.1087 287.47 32.9888Z" fill="url(#paint2_linear)"/>
    <path d="M242.455 70.3809H169.384V150.362H242.455V70.3809Z" fill="#14121A"/>
    <path d="M249.821 62.7353H176.75V142.716H249.821V62.7353Z" stroke="white" stroke-miterlimit="10"/>
    <path d="M183.822 67.7343V128.896H243.045" stroke="#E1EAE7" stroke-miterlimit="10"/>
    <path d="M200.321 107.431H187.062V128.602H200.321V107.431Z" fill="#74698C"/>
    <path d="M219.473 93.0224H206.214V128.602H219.473V93.0224Z" fill="#3F3D56"/>
    <path d="M238.625 76.2615H225.366V128.602H238.625V76.2615Z" fill="#6B67E9"/>
    <path d="M186.877 133.693H182.938V137.625H186.877V133.693Z" fill="#6C63FF"/>
    <path d="M192.568 133.693H188.628V137.625H192.568V133.693Z" fill="#3F3D56"/>
    <path d="M198.259 133.693H194.319V137.625H198.259V133.693Z" fill="#74698C"/>
    <path d="M242.455 135.401H227.134V136.021H242.455V135.401Z" fill="#E1EAE7"/>
    <path d="M242.455 137.26H227.134V137.88H242.455V137.26Z" fill="#E1EAE7"/>
    <path d="M242.455 139.12H227.134V139.74H242.455V139.12Z" fill="#E1EAE7"/>
    <path d="M233.412 53.0856C236.544 53.2215 238.871 56.0557 238.532 59.1656C238.225 61.9831 237.093 65.489 233.527 66.8356C227.172 69.2352 227.515 55.6947 228.718 55.1805C229.519 54.8377 230.779 52.9714 233.412 53.0856Z" fill="white"/>
    <path fill-rule="evenodd" clip-rule="evenodd" d="M314.591 118.398C315.61 116.522 320.43 107.086 320.43 107.086C320.087 101.944 312.015 103.658 312.015 103.658L309.361 113.532C309.251 113.789 309.129 113.998 308.995 114.17C308.881 114.277 308.733 114.418 308.556 114.588C308.18 114.851 307.739 114.965 307.242 115.093C306.552 115.271 305.751 115.477 304.856 116.15C303.809 116.954 302.463 117.247 301.444 117.469C300.535 117.667 299.886 117.808 299.944 118.206C300.067 119.048 303.649 119.121 304.437 118.898C304.276 119.111 303.967 119.472 303.578 119.927C301.848 121.947 298.526 125.827 299.504 126.857C299.869 127.258 300.059 127.686 300.237 128.087C300.543 128.778 300.814 129.388 301.889 129.64C302.61 129.841 303.754 129.828 305.008 129.502C307.575 129.105 309.745 126.881 311.374 124.509C312.577 123.024 313.407 121.815 313.778 120.51C313.828 120.303 313.887 120.096 313.951 119.89C314.264 119.204 314.481 118.673 314.591 118.398Z" fill="white"/>
    <path d="M314.591 57.6645L316.48 58.5802C316.48 58.5802 320.602 66.9787 320.774 68.1785C320.946 69.3783 323.694 73.8347 322.663 75.0345C321.633 76.2343 320.087 79.3194 321.117 80.5192C322.148 81.719 324.552 86.5182 324.552 88.2322C324.552 89.9461 321.976 94.5739 323.694 95.0881C325.411 95.6023 324.896 102.287 324.552 102.801C324.209 103.315 319.743 111.714 319.743 111.714C319.743 111.714 318.885 102.115 310.469 106.058C310.469 106.058 309.782 101.258 310.469 100.916C311.156 100.573 312.874 98.5161 311.5 98.1733C310.126 97.8305 308.236 93.7169 308.58 93.2027C308.923 92.6885 309.782 92.0029 308.923 91.4887C308.065 90.9745 307.378 88.0607 307.549 87.5466C307.721 87.0324 305.66 84.6328 305.66 84.6328L314.591 57.6645Z" fill="#9736DA"/>
    <path d="M180.221 34.7314L177.93 31.138C177.083 29.812 176.583 28.2171 176.506 26.4492C176.256 19.5314 182.743 12.1525 190.944 10.0195C197.046 8.42455 202.398 10.1732 204.862 13.9972L207.153 17.5906C204.689 13.7474 199.337 12.018 193.235 13.6129C185.034 15.7459 178.547 23.1248 178.797 30.0426C178.874 31.8105 179.374 33.4055 180.221 34.7314Z" fill="url(#paint3_linear)"/>
    <path d="M208.575 22.2792C208.826 29.197 202.338 36.5759 194.137 38.7089C185.937 40.8419 179.045 36.9603 178.814 30.0233C178.564 23.1055 185.051 15.7265 193.252 13.5935C201.472 11.4605 208.344 15.3422 208.575 22.2792Z" fill="#52EB82"/>
  </g>
  <path d="M188.116 230.096L185.699 233.988C184.738 235.545 183.245 236.778 181.256 237.588C174.683 240.188 165.104 236.826 159.908 230.076C156.275 225.361 155.714 220.258 157.921 216.684L160.338 212.791C158.116 216.353 158.692 221.469 162.324 226.184C167.535 232.947 177.114 236.309 183.673 233.696C185.676 232.899 187.155 231.653 188.116 230.096Z" fill="url(#paint4_linear)"/>
  <path d="M186.145 216.716C191.355 223.479 190.245 231.068 183.673 233.695C177.1 236.295 167.521 232.933 162.325 226.183C157.114 219.421 158.223 211.804 164.796 209.204C171.355 206.591 180.935 209.981 186.145 216.716Z" fill="#52EB82"/>
  <path d="M10.3544 206.481L6.32269 204.685C3.20009 203.285 0.887799 200.128 0.275138 195.689C-0.851367 187.66 3.93134 178.447 10.9473 175.172C14.0897 173.712 17.153 173.673 19.6827 174.797L23.7144 176.593C21.1847 175.468 18.1214 175.507 14.979 176.967C7.96305 180.242 3.16058 189.455 4.30685 197.485C4.91951 201.923 7.2318 205.08 10.3544 206.481Z" fill="url(#paint5_linear)"/>
  <path d="M29.7619 185.588C30.8884 193.617 26.1057 202.83 19.0897 206.105C12.0737 209.38 5.43319 205.513 4.30669 197.484C3.18018 189.455 7.9629 180.242 14.9789 176.967C21.9949 173.692 28.6354 177.559 29.7619 185.588Z" fill="#52EB82"/>
  <path d="M369.892 173.421L368.745 176.893C368.152 178.688 365.208 179.457 361.789 178.609C358.073 177.682 355.207 175.196 355.385 173.065C355.405 172.888 355.425 172.73 355.484 172.572L356.611 169.1C356.551 169.258 356.532 169.416 356.512 169.593C356.334 171.724 359.2 174.21 362.915 175.137C366.354 176.005 369.299 175.236 369.892 173.421Z" fill="url(#paint6_linear)"/>
  <path d="M369.992 172.947C369.814 175.078 366.652 176.064 362.937 175.156C359.221 174.229 356.355 171.743 356.533 169.613C356.711 167.462 359.873 166.476 363.589 167.403C367.304 168.311 370.17 170.797 369.992 172.947Z" fill="#3ADF54"/>
  <path d="M347.235 89.8598L349.962 88.9128C350.377 88.7748 350.891 88.8931 351.464 89.3271C352.986 90.4714 354.291 93.4108 354.389 95.8571C354.449 97.3959 354.034 98.3823 353.342 98.6191L350.615 99.566C351.306 99.3293 351.741 98.3429 351.662 96.8041C351.563 94.3578 350.259 91.4183 348.737 90.2741C348.164 89.8401 347.65 89.7217 347.235 89.8598Z" fill="url(#paint7_linear)"/>
  <path d="M346.188 92.6415C346.089 90.1952 347.235 89.1299 348.737 90.2938C350.259 91.438 351.563 94.3775 351.662 96.8238C351.761 99.2701 350.615 100.335 349.113 99.1715C347.591 98.0075 346.286 95.0877 346.188 92.6415Z" fill="#3ADF54"/>
  <defs>
    <linearGradient id="paint0_linear" x1="292.977" y1="232.79" x2="308.257" y2="232.79" gradientUnits="userSpaceOnUse">
      <stop stop-color="#A31FED"/>
      <stop offset="1" stop-color="#03EE65"/>
    </linearGradient>
    <linearGradient id="paint1_linear" x1="318.319" y1="221.971" x2="335.56" y2="221.971" gradientUnits="userSpaceOnUse">
      <stop stop-color="#A31FED"/>
      <stop offset="1" stop-color="#03EE65"/>
    </linearGradient>
    <linearGradient id="paint2_linear" x1="276.379" y1="34.1238" x2="300.503" y2="34.1238" gradientUnits="userSpaceOnUse">
      <stop stop-color="#A31FED"/>
      <stop offset="1" stop-color="#03EE65"/>
    </linearGradient>
    <linearGradient id="paint3_linear" x1="191.826" y1="9.4119" x2="191.826" y2="34.7168" gradientUnits="userSpaceOnUse">
      <stop stop-color="#3ADF54"/>
      <stop offset="0.3059" stop-color="#3ACC4E"/>
      <stop offset="0.9247" stop-color="#3A9A3F"/>
      <stop offset="1" stop-color="#3A943D"/>
    </linearGradient>
    <linearGradient id="paint4_linear" x1="157.842" y1="215.576" x2="182.389" y2="237.875" gradientUnits="userSpaceOnUse">
      <stop stop-color="#3A943D"/>
      <stop offset="0.0753264" stop-color="#3A9A3F"/>
      <stop offset="0.6941" stop-color="#3ACC4E"/>
      <stop offset="1" stop-color="#3ADF54"/>
    </linearGradient>
    <linearGradient id="paint5_linear" x1="11.9197" y1="174.006" x2="11.9197" y2="206.482" gradientUnits="userSpaceOnUse">
      <stop stop-color="#3A943D"/>
      <stop offset="0.0753264" stop-color="#3A9A3F"/>
      <stop offset="0.6941" stop-color="#3ACC4E"/>
      <stop offset="1" stop-color="#3ADF54"/>
    </linearGradient>
    <linearGradient id="paint6_linear" x1="362.662" y1="169.133" x2="362.662" y2="178.981" gradientUnits="userSpaceOnUse">
      <stop stop-color="#3ADF54"/>
      <stop offset="0.3059" stop-color="#3ACC4E"/>
      <stop offset="0.9247" stop-color="#3A9A3F"/>
      <stop offset="1" stop-color="#3A943D"/>
    </linearGradient>
    <linearGradient id="paint7_linear" x1="350.789" y1="88.8508" x2="350.789" y2="99.5511" gradientUnits="userSpaceOnUse">
      <stop stop-color="#3ADF54"/>
      <stop offset="0.3059" stop-color="#3ACC4E"/>
      <stop offset="0.9247" stop-color="#3A9A3F"/>
      <stop offset="1" stop-color="#3A943D"/>
    </linearGradient>
    <clipPath id="clip0">
      <rect width="330" height="244" fill="white" transform="translate(20 0.838684)"/>
    </clipPath>
  </defs>
</svg>
