<svg width="59" height="25" viewBox="0 0 59 25" fill="none" xmlns="http://www.w3.org/2000/svg">
  <g clip-path="url(#clip0)">
    <path d="M10.8007 3.81417C10.1175 4.62482 9.02442 5.26421 7.93135 5.17287C7.79472 4.07677 8.32987 2.91217 8.95611 2.19285C9.63928 1.35936 10.8348 0.765641 11.8026 0.719971C11.9165 1.86174 11.4724 2.98067 10.8007 3.81417ZM11.7913 5.38981C10.2086 5.29847 8.85363 6.29181 8.10215 6.29181C7.33927 6.29181 6.18927 5.43548 4.93679 5.45831C3.30857 5.48115 1.79422 6.40598 0.963027 7.87887C-0.744896 10.8246 0.518967 15.1862 2.16996 17.5839C2.97838 18.7713 3.9462 20.073 5.22145 20.0273C6.42838 19.9816 6.9066 19.2395 8.36403 19.2395C9.83284 19.2395 10.2541 20.0273 11.5294 20.0045C12.8502 19.9816 13.6814 18.817 14.4898 17.6296C15.4121 16.2823 15.7878 14.9693 15.8106 14.9008C15.7878 14.8779 13.2601 13.9074 13.2373 10.9845C13.2145 8.54109 15.2299 7.37649 15.321 7.30798C14.1824 5.61816 12.4061 5.43548 11.7913 5.38981ZM20.9343 2.07868V19.8789H23.6898V13.7932H27.5042C30.9883 13.7932 33.4363 11.3955 33.4363 7.92454C33.4363 4.45356 31.0339 2.07868 27.5952 2.07868H20.9343ZM23.6898 4.40789H26.8665C29.2576 4.40789 30.624 5.68667 30.624 7.93596C30.624 10.1852 29.2576 11.4754 26.8551 11.4754H23.6898V4.40789ZM38.469 20.0159C40.1997 20.0159 41.8052 19.1367 42.5339 17.7438H42.5908V19.8789H45.1413V11.0187C45.1413 8.44975 43.0918 6.79419 39.9378 6.79419C37.0116 6.79419 34.8482 8.47259 34.7685 10.779H37.2507C37.4556 9.68286 38.469 8.96355 39.8581 8.96355C41.5433 8.96355 42.4883 9.75137 42.4883 11.2014V12.1833L39.0497 12.3889C35.8502 12.583 34.1195 13.896 34.1195 16.1795C34.1195 18.4859 35.9071 20.0159 38.469 20.0159ZM39.2091 17.9036C37.7403 17.9036 36.8066 17.1957 36.8066 16.111C36.8066 14.9921 37.7061 14.3413 39.4255 14.2385L42.4883 14.0444V15.0492C42.4883 16.7162 41.0764 17.9036 39.2091 17.9036ZM48.5458 24.72C51.2329 24.72 52.4968 23.6924 53.6012 20.5753L58.4403 6.96545H55.6393L52.3943 17.4812H52.3373L49.0923 6.96545H46.2116L50.8799 19.9245L50.6294 20.7124C50.2081 22.0482 49.525 22.562 48.3067 22.562C48.0903 22.562 47.669 22.5392 47.4982 22.5164V24.6515C47.6576 24.6971 48.3408 24.72 48.5458 24.72Z" fill="black"/>
  </g>
  <defs>
    <clipPath id="clip0">
      <rect width="58.2857" height="24" fill="white" transform="translate(0.155029 0.719971)"/>
    </clipPath>
  </defs>
</svg>
