<svg width="35" height="30" viewBox="0 0 35 30" fill="none" xmlns="http://www.w3.org/2000/svg">
  <path d="M29.8505 11.0229H14.3167C14.0463 11.0229 13.8271 11.2421 13.8271 11.5125C13.8271 11.7828 14.0463 12.002 14.3167 12.002H29.8505C30.1208 12.002 30.34 11.7828 30.34 11.5125C30.34 11.2421 30.1208 11.0229 29.8505 11.0229Z" fill="white"/>
  <path d="M29.8505 14.7649H14.3167C14.0463 14.7649 13.8271 14.9841 13.8271 15.2544C13.8271 15.5247 14.0463 15.7439 14.3167 15.7439H29.8505C30.1208 15.7439 30.34 15.5247 30.34 15.2544C30.34 14.9841 30.1208 14.7649 29.8505 14.7649Z" fill="white"/>
  <path d="M29.8505 18.5068H14.3167C14.0463 18.5068 13.8271 18.726 13.8271 18.9963C13.8271 19.2667 14.0463 19.4859 14.3167 19.4859H29.8505C30.1208 19.4859 30.34 19.2667 30.34 18.9963C30.34 18.726 30.1208 18.5068 29.8505 18.5068Z" fill="white"/>
  <path d="M31.4067 6.7417H12.7631C11.1932 6.7417 9.91602 8.01887 9.91602 9.58883V21.3121C9.91602 22.882 11.1932 24.1592 12.7631 24.1592H25.8305C25.9703 24.1592 26.1001 24.2221 26.1868 24.3318L30.4067 29.6742C30.573 29.8847 30.8157 29.9995 31.0697 29.9995C31.1642 29.9995 31.2603 29.9836 31.3545 29.9509C31.7022 29.8301 31.9269 29.5143 31.9269 29.1462V24.1106C33.2469 23.864 34.2539 22.697 34.2539 21.3121V9.58876C34.2539 8.01887 32.9767 6.7417 31.4067 6.7417ZM33.2748 21.3121C33.2748 22.3288 32.4477 23.1665 31.431 23.1794C31.1631 23.1829 30.9478 23.401 30.9478 23.6689V28.7798L26.9551 23.7249C26.6816 23.3787 26.2718 23.1801 25.8305 23.1801H12.7631C11.7331 23.1801 10.895 22.3421 10.895 21.312V9.58876C10.895 8.5587 11.733 7.72066 12.7631 7.72066H31.4067C32.4368 7.72066 33.2748 8.5587 33.2748 9.58876V21.3121Z" fill="white"/>
  <path d="M8.04768 14.8359C7.71285 14.8834 7.41301 15.0557 7.20337 15.3211L3.84069 19.5783V15.3117C3.84069 15.0437 3.6253 14.8256 3.35744 14.8222C2.50693 14.8113 1.81496 14.1105 1.81496 13.26V3.05456C1.81496 2.19283 2.51607 1.49172 3.37781 1.49172H19.6076C20.4693 1.49172 21.1704 2.19283 21.1704 3.05456V4.9429C21.1704 5.21324 21.3896 5.43241 21.6599 5.43241C21.9303 5.43241 22.1494 5.21324 22.1494 4.9429V3.05456C22.1494 1.653 21.0091 0.512695 19.6076 0.512695H3.37781C1.97624 0.512695 0.835938 1.653 0.835938 3.05456V13.26C0.835938 14.4783 1.70864 15.5077 2.86173 15.7482V20.0798C2.86173 20.4276 3.07398 20.726 3.40254 20.8401C3.49163 20.8711 3.58236 20.8861 3.67164 20.8861C3.91163 20.8861 4.14105 20.7776 4.29815 20.5787L7.9717 15.928C8.0247 15.8608 8.10061 15.8172 8.18533 15.8052C8.45299 15.7672 8.6392 15.5193 8.60115 15.2517C8.56316 14.984 8.31573 14.7977 8.04768 14.8359Z" fill="white"/>
</svg>
