<svg width="121" height="121" viewBox="0 0 121 121" fill="none" xmlns="http://www.w3.org/2000/svg">
  <g filter="url(#filter0_d)">
    <rect x="10.6504" y="10.6499" width="100.35" height="100.35" rx="50.1748" fill="url(#paint0_linear)"/>
    <path d="M79.2304 56.4893H55.9987C55.5944 56.4893 55.2666 56.817 55.2666 57.2213C55.2666 57.6257 55.5944 57.9534 55.9987 57.9534H79.2304C79.6347 57.9534 79.9625 57.6257 79.9625 57.2213C79.9625 56.817 79.6347 56.4893 79.2304 56.4893Z" fill="white"/>
    <path d="M79.2304 62.0857H55.9987C55.5944 62.0857 55.2666 62.4135 55.2666 62.8178C55.2666 63.2221 55.5944 63.5499 55.9987 63.5499H79.2304C79.6347 63.5499 79.9625 63.2221 79.9625 62.8178C79.9625 62.4135 79.6347 62.0857 79.2304 62.0857Z" fill="white"/>
    <path d="M79.2304 67.6821H55.9987C55.5944 67.6821 55.2666 68.0099 55.2666 68.4142C55.2666 68.8185 55.5944 69.1463 55.9987 69.1463H79.2304C79.6347 69.1463 79.9625 68.8185 79.9625 68.4142C79.9625 68.0099 79.6347 67.6821 79.2304 67.6821Z" fill="white"/>
    <path d="M81.5565 50.0867H53.674C51.3262 50.0867 49.416 51.9967 49.416 54.3447V71.8775C49.416 74.2253 51.3261 76.1355 53.674 76.1355H73.2171C73.426 76.1355 73.6202 76.2295 73.7498 76.3936L80.0609 84.3834C80.3096 84.6983 80.6726 84.8699 81.0526 84.8699C81.1938 84.8699 81.3375 84.8462 81.4785 84.7972C81.9984 84.6166 82.3344 84.1443 82.3344 83.5939V76.0628C84.3086 75.694 85.8146 73.9486 85.8146 71.8775V54.3446C85.8146 51.9967 83.9045 50.0867 81.5565 50.0867ZM84.3504 71.8775C84.3504 73.398 83.1134 74.6508 81.5929 74.6702C81.1923 74.6753 80.8701 75.0016 80.8701 75.4023V83.0458L74.8988 75.486C74.4899 74.9682 73.8769 74.6712 73.2171 74.6712H53.674C52.1335 74.6712 50.8802 73.4179 50.8802 71.8774V54.3446C50.8802 52.8041 52.1334 51.5508 53.674 51.5508H81.5565C83.0971 51.5508 84.3504 52.8041 84.3504 54.3446V71.8775Z" fill="white"/>
    <path d="M46.6225 62.1917C46.1217 62.2628 45.6733 62.5206 45.3598 62.9174L40.3307 69.2843V62.9033C40.3307 62.5026 40.0086 62.1764 39.608 62.1712C38.336 62.155 37.3011 61.1069 37.3011 59.8349V44.5721C37.3011 43.2834 38.3496 42.2348 39.6384 42.2348H63.9109C65.1997 42.2348 66.2482 43.2834 66.2482 44.5721V47.3962C66.2482 47.8006 66.576 48.1283 66.9803 48.1283C67.3846 48.1283 67.7124 47.8006 67.7124 47.3962V44.5721C67.7124 42.476 66.007 40.7706 63.9109 40.7706H39.6384C37.5423 40.7706 35.8369 42.476 35.8369 44.5721V59.8349C35.8369 61.657 37.1421 63.1964 38.8666 63.5562V70.0343C38.8666 70.5544 39.184 71.0008 39.6754 71.1714C39.8087 71.2177 39.9443 71.2401 40.0779 71.2401C40.4368 71.2401 40.7799 71.0779 41.0148 70.7805L46.5088 63.825C46.5881 63.7246 46.7016 63.6594 46.8283 63.6413C47.2286 63.5845 47.5071 63.2139 47.4502 62.8136C47.3934 62.4133 47.0234 62.1346 46.6225 62.1917Z" fill="white"/>
  </g>
  <defs>
    <filter id="filter0_d" x="0.650391" y="0.649902" width="120.35" height="120.35" filterUnits="userSpaceOnUse" color-interpolation-filters="sRGB">
      <feFlood flood-opacity="0" result="BackgroundImageFix"/>
      <feColorMatrix in="SourceAlpha" type="matrix" values="0 0 0 0 0 0 0 0 0 0 0 0 0 0 0 0 0 0 127 0"/>
      <feOffset/>
      <feGaussianBlur stdDeviation="5"/>
      <feColorMatrix type="matrix" values="0 0 0 0 0 0 0 0 0 0 0 0 0 0 0 0 0 0 0.2 0"/>
      <feBlend mode="normal" in2="BackgroundImageFix" result="effect1_dropShadow"/>
      <feBlend mode="normal" in="SourceGraphic" in2="effect1_dropShadow" result="shape"/>
    </filter>
    <linearGradient id="paint0_linear" x1="111" y1="60.8247" x2="10.6504" y2="60.8247" gradientUnits="userSpaceOnUse">
      <stop stop-color="#A31FED"/>
      <stop offset="1" stop-color="#03EE65"/>
    </linearGradient>
  </defs>
</svg>
