<svg width="61" height="61" viewBox="0 0 61 61" fill="none" xmlns="http://www.w3.org/2000/svg">
  <path fill-rule="evenodd" clip-rule="evenodd" d="M56.2001 30.6179C56.2001 44.8117 44.6938 56.318 30.5 56.318C16.3063 56.318 4.8 44.8117 4.8 30.6179C4.8 16.4242 16.3063 4.91792 30.5 4.91792C44.6938 4.91792 56.2001 16.4242 56.2001 30.6179ZM60.5 30.6179C60.5 47.1865 47.0686 60.618 30.5 60.618C13.9315 60.618 0.5 47.1865 0.5 30.6179C0.5 14.0494 13.9315 0.61792 30.5 0.61792C47.0686 0.61792 60.5 14.0494 60.5 30.6179ZM43.521 17.5431C44.3624 18.381 44.3652 19.7423 43.5273 20.5836L33.5343 30.6179L43.5273 40.6523C44.3652 41.4936 44.3624 42.8549 43.5211 43.6928C42.6797 44.5307 41.3184 44.5279 40.4805 43.6866L30.5 33.6648L20.5194 43.6866C19.6815 44.5279 18.3202 44.5307 17.4789 43.6928C16.6375 42.8549 16.6347 41.4936 17.4726 40.6523L27.4657 30.6179L17.4727 20.5836C16.6348 19.7423 16.6376 18.381 17.4789 17.5431C18.3203 16.7052 19.6816 16.708 20.5195 17.5493L30.5 27.5711L40.4805 17.5493C41.3184 16.708 42.6797 16.7052 43.521 17.5431Z" fill="url(#paint0_linear)"/>
  <defs>
    <linearGradient id="paint0_linear" x1="60.5" y1="30.6179" x2="0.5" y2="30.6179" gradientUnits="userSpaceOnUse">
      <stop stop-color="#A31FED"/>
      <stop offset="1" stop-color="#03EE65"/>
    </linearGradient>
  </defs>
</svg>
