<svg width="61" height="25" viewBox="0 0 61 25" fill="none" xmlns="http://www.w3.org/2000/svg">
  <g clip-path="url(#clip0)">
    <path d="M28.5311 12.4496V19.4929H26.3156V2.10642H32.1917C33.6091 2.07869 34.9715 2.61942 35.9899 3.61769C37.022 4.54663 37.5999 5.89152 37.5724 7.278C37.5999 8.67835 37.022 10.0232 35.9899 10.966C34.9577 11.9504 33.6917 12.4496 32.1917 12.4496H28.5311ZM28.5311 4.24161V10.3144H32.2467C33.0724 10.3421 33.8706 10.0094 34.4348 9.41318C35.6045 8.27627 35.6183 6.40452 34.4899 5.22601C34.4761 5.21214 34.4486 5.18441 34.4348 5.17055C33.8706 4.5605 33.0724 4.22774 32.2467 4.25547L28.5311 4.24161Z" fill="#5F6368"/>
    <path d="M42.6917 7.20868C44.3293 7.20868 45.6229 7.65235 46.5725 8.52584C47.522 9.41318 47.9899 10.6194 47.9899 12.1584V19.4929H45.8706V17.843H45.7743C44.8523 19.2017 43.6413 19.8811 42.1137 19.8811C40.8202 19.8811 39.7193 19.4929 38.8523 18.7165C37.9991 17.9955 37.5174 16.9279 37.5449 15.8049C37.5449 14.5709 38.0128 13.6004 38.9348 12.8655C39.8569 12.1307 41.0954 11.7702 42.6367 11.7702C43.9578 11.7702 45.0312 12.0198 45.8844 12.505V11.992C45.8844 11.2295 45.5541 10.5085 44.9761 10.0094C44.3844 9.48251 43.6275 9.19135 42.8431 9.19135C41.6046 9.19135 40.6275 9.71821 39.8981 10.7719L37.944 9.53797C39.0037 7.98511 40.5862 7.20868 42.6917 7.20868ZM39.8293 15.8465C39.8293 16.4288 40.1046 16.9695 40.5587 17.3023C41.0541 17.6905 41.6596 17.8985 42.2789 17.8846C43.2147 17.8846 44.1092 17.5102 44.7697 16.8447C45.4991 16.1515 45.8706 15.3335 45.8706 14.3907C45.1825 13.8361 44.2192 13.5588 42.9807 13.5588C42.0862 13.5588 41.3293 13.7806 40.7238 14.2104C40.1321 14.6541 39.8293 15.1948 39.8293 15.8465Z" fill="#5F6368"/>
    <path d="M60.155 7.59692L52.7513 24.7338H50.4669L53.2192 18.7442L48.3477 7.61079H50.7559L54.2651 16.1515H54.3201L57.7467 7.61079H60.155V7.59692Z" fill="#5F6368"/>
    <path d="M19.5724 10.9245C19.5724 10.2451 19.5174 9.56572 19.4073 8.90021H10.0632V12.7408H15.4164C15.1963 13.9747 14.4807 15.0839 13.4348 15.7772V18.2728H16.6275C18.499 16.5397 19.5724 13.9747 19.5724 10.9245Z" fill="#4285F4"/>
    <path d="M10.0633 20.6853C12.7331 20.6853 14.9899 19.7979 16.6276 18.2728L13.4349 15.7771C12.5404 16.3872 11.3982 16.7338 10.0633 16.7338C7.47619 16.7338 5.28812 14.973 4.50371 12.616H1.21472V15.1948C2.89362 18.564 6.32023 20.6853 10.0633 20.6853Z" fill="#34A853"/>
    <path d="M4.50368 12.616C4.09083 11.382 4.09083 10.0371 4.50368 8.78929V6.2243H1.21468C-0.202746 9.03886 -0.202746 12.3664 1.21468 15.181L4.50368 12.616Z" fill="#FBBC04"/>
    <path d="M10.0633 4.67144C11.4808 4.64371 12.8432 5.18444 13.8615 6.16884L16.6826 3.32655C14.8936 1.62118 12.5266 0.692234 10.0633 0.719964C6.32023 0.719964 2.89362 2.85515 1.21472 6.2243L4.50371 8.80315C5.28812 6.43227 7.47619 4.67144 10.0633 4.67144Z" fill="#EA4335"/>
  </g>
  <defs>
    <clipPath id="clip0">
      <rect width="60" height="24" fill="white" transform="translate(0.155029 0.719971)"/>
    </clipPath>
  </defs>
</svg>
