<svg width="25" height="25" viewBox="0 0 25 25" fill="none" xmlns="http://www.w3.org/2000/svg">
  <path d="M12.1936 6.34497C8.56885 6.34497 5.6311 9.28272 5.6311 12.9075C5.6311 16.5322 8.56885 19.47 12.1936 19.47C15.8184 19.47 18.7561 16.5322 18.7561 12.9075C18.7561 9.28272 15.8184 6.34497 12.1936 6.34497ZM12.1936 17.009C9.93262 17.009 8.09204 15.1685 8.09204 12.9075C8.09204 10.6465 9.93262 8.80591 12.1936 8.80591C14.4546 8.80591 16.2952 10.6465 16.2952 12.9075C16.2952 15.1685 14.4546 17.009 12.1936 17.009Z" fill="#D0CAE0"/>
  <path d="M18.1311 7.46997C18.6144 7.46997 19.0061 7.07822 19.0061 6.59497C19.0061 6.11172 18.6144 5.71997 18.1311 5.71997C17.6479 5.71997 17.2561 6.11172 17.2561 6.59497C17.2561 7.07822 17.6479 7.46997 18.1311 7.46997Z" fill="#D0CAE0"/>
  <rect x="0.506104" y="1.21997" width="23" height="23" rx="3.5" stroke="#D0CAE0"/>
</svg>
