<svg width="60" height="61" viewBox="0 0 60 61" fill="none" xmlns="http://www.w3.org/2000/svg">
  <path d="M30 0.0597229C30.7956 0.0597229 31.5587 0.375793 32.1213 0.938402C32.6839 1.50101 33 2.26407 33 3.05972V12.0597C33 12.8554 32.6839 13.6184 32.1213 14.181C31.5587 14.7437 30.7956 15.0597 30 15.0597C29.2044 15.0597 28.4413 14.7437 27.8787 14.181C27.3161 13.6184 27 12.8554 27 12.0597V3.05972C27 2.26407 27.3161 1.50101 27.8787 0.938402C28.4413 0.375793 29.2044 0.0597229 30 0.0597229ZM30 45.0597C30.7956 45.0597 31.5587 45.3758 32.1213 45.9384C32.6839 46.501 33 47.2641 33 48.0597V57.0597C33 57.8554 32.6839 58.6184 32.1213 59.181C31.5587 59.7437 30.7956 60.0597 30 60.0597C29.2044 60.0597 28.4413 59.7437 27.8787 59.181C27.3161 58.6184 27 57.8554 27 57.0597V48.0597C27 47.2641 27.3161 46.501 27.8787 45.9384C28.4413 45.3758 29.2044 45.0597 30 45.0597ZM60 30.0597C60 30.8554 59.6839 31.6184 59.1213 32.181C58.5587 32.7437 57.7957 33.0597 57 33.0597H48C47.2043 33.0597 46.4413 32.7437 45.8787 32.181C45.3161 31.6184 45 30.8554 45 30.0597C45 29.2641 45.3161 28.501 45.8787 27.9384C46.4413 27.3758 47.2043 27.0597 48 27.0597H57C57.7957 27.0597 58.5587 27.3758 59.1213 27.9384C59.6839 28.501 60 29.2641 60 30.0597ZM15 30.0597C15 30.8554 14.6839 31.6184 14.1213 32.181C13.5587 32.7437 12.7956 33.0597 12 33.0597H3C2.20435 33.0597 1.44129 32.7437 0.87868 32.181C0.31607 31.6184 0 30.8554 0 30.0597C0 29.2641 0.31607 28.501 0.87868 27.9384C1.44129 27.3758 2.20435 27.0597 3 27.0597H12C12.7956 27.0597 13.5587 27.3758 14.1213 27.9384C14.6839 28.501 15 29.2641 15 30.0597ZM51.213 51.2727C50.6504 51.8351 49.8875 52.1511 49.092 52.1511C48.2965 52.1511 47.5336 51.8351 46.971 51.2727L40.608 44.9097C40.0615 44.3439 39.7591 43.5861 39.766 42.7995C39.7728 42.0129 40.0883 41.2605 40.6445 40.7043C41.2008 40.148 41.9532 39.8325 42.7398 39.8257C43.5264 39.8189 44.2842 40.1213 44.85 40.6677L51.213 47.0277C51.4919 47.3063 51.7132 47.6372 51.8642 48.0014C52.0152 48.3656 52.0929 48.756 52.0929 49.1502C52.0929 49.5445 52.0152 49.9349 51.8642 50.299C51.7132 50.6632 51.4919 50.9941 51.213 51.2727ZM19.392 19.4517C18.8294 20.0141 18.0665 20.3301 17.271 20.3301C16.4755 20.3301 15.7126 20.0141 15.15 19.4517L8.79 13.0917C8.22708 12.5292 7.91067 11.7661 7.91039 10.9703C7.91011 10.1745 8.22598 9.41115 8.7885 8.84822C9.35102 8.2853 10.1141 7.9689 10.9099 7.96861C11.7057 7.96833 12.4691 8.2842 13.032 8.84672L19.392 15.2097C19.9544 15.7723 20.2704 16.5352 20.2704 17.3307C20.2704 18.1262 19.9544 18.8891 19.392 19.4517ZM8.79 51.2727C8.22759 50.7101 7.91164 49.9472 7.91164 49.1517C7.91164 48.3562 8.22759 47.5933 8.79 47.0307L15.153 40.6677C15.4297 40.3812 15.7608 40.1526 16.1268 39.9954C16.4928 39.8382 16.8865 39.7554 17.2848 39.752C17.6831 39.7485 18.0782 39.8244 18.4469 39.9753C18.8156 40.1261 19.1505 40.3489 19.4322 40.6305C19.7139 40.9122 19.9366 41.2472 20.0875 41.6159C20.2383 41.9846 20.3142 42.3796 20.3108 42.7779C20.3073 43.1763 20.2245 43.5699 20.0673 43.9359C19.9101 44.3019 19.6815 44.633 19.395 44.9097L13.035 51.2727C12.7564 51.5517 12.4255 51.7729 12.0613 51.9239C11.6971 52.0749 11.3067 52.1526 10.9125 52.1526C10.5183 52.1526 10.1279 52.0749 9.76368 51.9239C9.39948 51.7729 9.06862 51.5517 8.79 51.2727ZM40.608 19.4517C40.0456 18.8891 39.7296 18.1262 39.7296 17.3307C39.7296 16.5352 40.0456 15.7723 40.608 15.2097L46.968 8.84672C47.5305 8.2838 48.2936 7.9674 49.0894 7.96712C49.8852 7.96683 50.6486 8.2827 51.2115 8.84522C51.7744 9.40775 52.0908 10.1709 52.0911 10.9667C52.0914 11.7625 51.7755 12.5258 51.213 13.0887L44.85 19.4517C44.2874 20.0141 43.5245 20.3301 42.729 20.3301C41.9335 20.3301 41.1706 20.0141 40.608 19.4517Z" fill="url(#paint0_linear)"/>
  <defs>
    <linearGradient id="paint0_linear" x1="60" y1="30.0597" x2="3.8445e-07" y2="30.0597" gradientUnits="userSpaceOnUse">
      <stop stop-color="#A31FED"/>
      <stop offset="1" stop-color="#03EE65"/>
    </linearGradient>
  </defs>
</svg>
