<svg width="21" height="21" viewBox="0 0 21 21" fill="none" xmlns="http://www.w3.org/2000/svg">
  <path d="M10.7213 19.4816C11.0713 19.4735 11.4071 19.342 11.6694 19.1102C11.9317 18.8784 12.1036 18.5613 12.1546 18.2149H9.23242C9.28491 18.5707 9.46482 18.8952 9.7387 19.1282C10.0126 19.3612 10.3618 19.4868 10.7213 19.4816Z" fill="#D0CAE0"/>
  <path d="M18.7824 15.8982C18.2467 15.4207 17.7777 14.8732 17.388 14.2705C16.9626 13.4386 16.7076 12.53 16.638 11.5982V8.8538C16.6357 8.52044 16.606 8.18784 16.5491 7.85936C16.1118 7.77195 15.6916 7.61436 15.3047 7.39269C15.4522 7.86761 15.5271 8.36207 15.5269 8.85936V11.6038C15.595 12.7405 15.9077 13.8491 16.4436 14.8538C16.8271 15.4616 17.2822 16.0211 17.7991 16.5205H3.57133C4.08822 16.0211 4.54333 15.4616 4.92688 14.8538C5.46278 13.8491 5.77546 12.7405 5.84355 11.6038V8.8538C5.84063 8.21085 5.96455 7.57364 6.20824 6.97865C6.45192 6.38366 6.81058 5.84258 7.26367 5.38639C7.71676 4.93021 8.25538 4.56788 8.8487 4.32014C9.44202 4.07241 10.0784 3.94415 10.7213 3.94269C11.6623 3.94345 12.5822 4.22172 13.3658 4.74269C13.2794 4.42546 13.2309 4.09911 13.2213 3.77047V3.42047C12.6412 3.13511 12.0181 2.94741 11.3769 2.86491V2.16491C11.3769 1.96821 11.2987 1.77957 11.1597 1.64048C11.0206 1.50139 10.8319 1.42325 10.6352 1.42325C10.4385 1.42325 10.2499 1.50139 10.1108 1.64048C9.97169 1.77957 9.89355 1.96821 9.89355 2.16491V2.89269C8.45784 3.09522 7.14387 3.81033 6.19423 4.90599C5.24459 6.00165 4.7234 7.40388 4.72688 8.8538V11.5982C4.6573 12.53 4.40231 13.4386 3.97688 14.2705C3.59404 14.8718 3.13255 15.4192 2.60466 15.8982C2.5454 15.9503 2.49791 16.0144 2.46534 16.0862C2.43277 16.1581 2.41587 16.236 2.41577 16.3149V17.0705C2.41577 17.2178 2.4743 17.3591 2.57849 17.4633C2.68268 17.5675 2.82398 17.626 2.97133 17.626H18.4158C18.5631 17.626 18.7044 17.5675 18.8086 17.4633C18.9128 17.3591 18.9713 17.2178 18.9713 17.0705V16.3149C18.9712 16.236 18.9543 16.1581 18.9218 16.0862C18.8892 16.0144 18.8417 15.9503 18.7824 15.8982Z" fill="#D0CAE0"/>
</svg>
