<svg width="61" height="61" viewBox="0 0 61 61" fill="none" xmlns="http://www.w3.org/2000/svg">
  <path d="M18.7984 25.2661C17.9692 24.3615 16.5371 24.2862 15.6326 25.1153C14.728 25.9445 14.6527 27.3766 15.4818 28.2811L26.8637 40.6429C27.316 41.0952 27.8436 41.3967 28.4466 41.3967C28.4466 41.3967 28.4466 41.3967 28.522 41.3967C29.125 41.3967 29.728 41.1706 30.1049 40.7183L58.8989 11.9997C59.8034 11.0952 59.8034 9.66305 58.8989 8.8339C57.9944 8.00476 56.5622 7.92938 55.7331 8.8339L28.5974 35.8942L18.7984 25.2661Z" fill="url(#paint0_linear)"/>
  <path d="M58.3715 28.3566C57.0901 28.3566 56.1102 29.3365 56.1102 30.6179C56.1102 44.638 44.6529 56.0953 30.6328 56.0953C16.6127 56.0953 5.15543 44.638 5.15543 30.6179C5.15543 16.5978 16.6127 5.14053 30.6328 5.14053C31.9142 5.14053 32.8941 4.16063 32.8941 2.87923C32.8941 1.59782 31.9142 0.61792 30.6328 0.61792C14.1253 0.61792 0.632812 14.1104 0.632812 30.6179C0.632812 47.1255 14.1253 60.6179 30.6328 60.6179C47.1404 60.6179 60.6328 47.1255 60.6328 30.6179C60.6328 29.3365 59.6529 28.3566 58.3715 28.3566Z" fill="url(#paint1_linear)"/>
  <defs>
    <linearGradient id="paint0_linear" x1="59.5773" y1="24.7901" x2="14.9043" y2="24.7901" gradientUnits="userSpaceOnUse">
      <stop stop-color="#A31FED"/>
      <stop offset="1" stop-color="#03EE65"/>
    </linearGradient>
    <linearGradient id="paint1_linear" x1="60.6328" y1="30.6179" x2="0.632813" y2="30.6179" gradientUnits="userSpaceOnUse">
      <stop stop-color="#A31FED"/>
      <stop offset="1" stop-color="#03EE65"/>
    </linearGradient>
  </defs>
</svg>
