<svg width="21" height="21" viewBox="0 0 21 21" fill="none" xmlns="http://www.w3.org/2000/svg">
  <g clip-path="url(#clip0)">
    <path d="M18.8841 8.32609H17.2563C17.1198 7.88043 16.9411 7.45 16.7241 7.04L17.8741 5.89C18.1202 5.64391 18.2559 5.31609 18.2559 4.96696C18.2559 4.61826 18.1202 4.29043 17.8741 4.04435L16.6437 2.81391C16.152 2.32217 15.2911 2.32087 14.7985 2.81391L13.6485 3.96391C13.2389 3.74696 12.808 3.5687 12.3624 3.43174V1.80435C12.3624 1.08522 11.7772 0.5 11.058 0.5H9.31891C8.59978 0.5 8.01456 1.08522 8.01456 1.80435V3.43217C7.56891 3.56913 7.13848 3.74739 6.72848 3.96435L5.57804 2.81435C5.06935 2.30565 4.24152 2.30565 3.73282 2.81435L2.50195 4.04478C1.99369 4.55348 1.99369 5.3813 2.50195 5.89L3.65195 7.04043C3.435 7.45 3.25674 7.88087 3.11978 8.32652H1.49282C0.773694 8.32652 0.188477 8.91174 0.188477 9.63087V11.37C0.188477 12.0887 0.773694 12.6739 1.49282 12.6739H3.12065C3.25761 13.1196 3.43587 13.55 3.65282 13.96L2.50282 15.1104C1.99413 15.6191 1.99413 16.447 2.50282 16.9557L3.73326 18.1865C4.24195 18.6948 5.06978 18.6948 5.57848 18.1865L6.72891 17.0365C7.13848 17.2535 7.56935 17.4317 8.015 17.5687V19.1957C8.015 19.9148 8.60021 20.5 9.31935 20.5H11.0585C11.7776 20.5 12.3628 19.9148 12.3628 19.1957V17.5678C12.8085 17.4309 13.2393 17.2526 13.6489 17.0357L14.7989 18.1861C15.292 18.6787 16.1528 18.6778 16.6441 18.1861L17.8746 16.9557C18.1207 16.7096 18.2563 16.3817 18.2563 16.033C18.2563 15.6839 18.1207 15.3565 17.8746 15.1104L16.7246 13.96C16.9415 13.5504 17.1198 13.1196 17.2567 12.6739H18.8841C19.6033 12.6739 20.1885 12.0887 20.1885 11.3696V9.63043C20.1885 8.9113 19.6033 8.32609 18.8841 8.32609ZM19.3189 11.3696C19.3189 11.6091 19.1241 11.8043 18.8841 11.8043H16.9276C16.7293 11.8043 16.5563 11.9387 16.5067 12.1304C16.3528 12.7239 16.1185 13.2904 15.8093 13.8139C15.7089 13.9848 15.7363 14.2022 15.8763 14.3422L17.2589 15.7252C17.3407 15.807 17.3859 15.9161 17.3859 16.033C17.3859 16.15 17.3407 16.2591 17.2589 16.3409L16.0285 17.5713C15.865 17.7348 15.5767 17.7348 15.4128 17.5713L14.0302 16.1887C13.8902 16.0483 13.6728 16.0213 13.5015 16.1217C12.9789 16.4304 12.4124 16.6652 11.8185 16.8187C11.6272 16.8678 11.4928 17.0409 11.4928 17.2391V19.1957C11.4928 19.4352 11.298 19.6304 11.058 19.6304H9.31891C9.07935 19.6304 8.88413 19.4352 8.88413 19.1957V17.2391C8.88413 17.0409 8.74978 16.8678 8.55804 16.8183C7.96456 16.6648 7.39804 16.4304 6.87456 16.1213C6.80587 16.0804 6.72978 16.0609 6.65369 16.0609C6.54108 16.0609 6.42978 16.1043 6.34587 16.1883L4.96326 17.5709C4.79326 17.7404 4.51761 17.7404 4.34761 17.5709L3.11717 16.3404C2.94717 16.1704 2.94717 15.8943 3.11717 15.7248L4.49978 14.3422C4.64022 14.2017 4.66761 13.9843 4.56674 13.8139C4.25804 13.2904 4.02326 12.7243 3.86978 12.1304C3.82065 11.9387 3.64761 11.8043 3.44935 11.8043H1.49282C1.25326 11.8043 1.05804 11.6091 1.05804 11.3696V9.63043C1.05804 9.39087 1.25326 9.19565 1.49282 9.19565H3.44935C3.64761 9.19565 3.82065 9.0613 3.87022 8.86957C4.02369 8.27609 4.25804 7.70957 4.56717 7.18609C4.66804 7.01522 4.64065 6.79783 4.50022 6.65783L3.11761 5.27522C2.94804 5.10565 2.94804 4.82957 3.11761 4.65957L4.34804 3.42913C4.51804 3.25913 4.79369 3.25957 4.96369 3.42913L6.3463 4.81174C6.48674 4.95217 6.70369 4.98 6.87456 4.8787C7.39804 4.57 7.96413 4.33522 8.55804 4.18174C8.74978 4.13217 8.88413 3.95913 8.88413 3.76087V1.80435C8.88413 1.56478 9.07935 1.36957 9.31891 1.36957H11.058C11.298 1.36957 11.4928 1.56478 11.4928 1.80435V3.76087C11.4928 3.95913 11.6272 4.13217 11.8189 4.18174C12.4128 4.33522 12.9793 4.57 13.502 4.8787C13.6733 4.97957 13.8906 4.95261 14.0307 4.81174L15.4133 3.42913C15.5772 3.26478 15.8654 3.26522 16.0289 3.42913L17.2593 4.65957C17.3411 4.7413 17.3863 4.85087 17.3863 4.96739C17.3863 5.08391 17.3411 5.19348 17.2593 5.27522L15.8767 6.65783C15.7367 6.79826 15.7089 7.01565 15.8098 7.18609C16.1189 7.70957 16.3533 8.27565 16.5072 8.86957C16.5563 9.0613 16.7293 9.19565 16.9276 9.19565H18.8841C19.1241 9.19565 19.3189 9.39087 19.3189 9.63043V11.3696Z" fill="#D0CAE0"/>
    <path d="M10.1884 6.58698C8.03104 6.58698 6.27539 8.34263 6.27539 10.5C6.27539 12.6574 8.03104 14.4131 10.1884 14.4131C12.3463 14.4131 14.1015 12.6574 14.1015 10.5C14.1015 8.34263 12.3463 6.58698 10.1884 6.58698ZM10.1884 13.5435C8.51017 13.5435 7.14496 12.1783 7.14496 10.5C7.14496 8.82176 8.51017 7.45654 10.1884 7.45654C11.8663 7.45654 13.2319 8.82176 13.2319 10.5C13.2319 12.1783 11.8663 13.5435 10.1884 13.5435Z" fill="#D0CAE0"/>
  </g>
  <defs>
    <clipPath id="clip0">
      <rect width="20" height="20" fill="white" transform="translate(0.188477 0.5)"/>
    </clipPath>
  </defs>
</svg>
