<svg width="25" height="25" viewBox="0 0 25 25" fill="none" xmlns="http://www.w3.org/2000/svg">
  <path d="M18.0448 16.72H16.625C16.0874 16.72 15.922 16.2787 14.9571 15.268C14.1163 14.4282 13.7441 14.3143 13.5373 14.3143C13.2479 14.3143 13.1651 14.3997 13.1651 14.8125V16.1363C13.1651 16.4922 13.0549 16.7057 12.1451 16.7057C10.6426 16.7057 8.97469 15.7662 7.80301 14.0153C6.03861 11.4531 5.55615 9.53136 5.55615 9.13278C5.55615 8.91926 5.63886 8.71997 6.03861 8.71997H7.4584C7.8168 8.71997 7.95464 8.89079 8.09248 9.28937C8.79549 11.3819 9.96716 13.2182 10.4496 13.2182C10.6288 13.2182 10.7115 13.1328 10.7115 12.663V10.4993C10.6564 9.50289 10.1464 9.41748 10.1464 9.06161C10.1464 8.89079 10.2842 8.71997 10.5048 8.71997H12.7378C13.0411 8.71997 13.1514 8.89079 13.1514 9.2609V12.179C13.1514 12.4922 13.2892 12.6061 13.3719 12.6061C13.5511 12.6061 13.7027 12.4922 14.0336 12.1506C15.0536 10.9691 15.7842 9.14702 15.7842 9.14702C15.8807 8.93349 16.0461 8.73421 16.4045 8.73421H17.8243C18.2516 8.73421 18.3481 8.96196 18.2516 9.27513C18.0724 10.1292 16.3356 12.663 16.3356 12.663C16.1839 12.9193 16.1288 13.0331 16.3356 13.3178C16.4872 13.5314 16.9834 13.9726 17.3143 14.3712C17.9208 15.083 18.3894 15.6808 18.5135 16.0936C18.6513 16.5064 18.4446 16.72 18.0448 16.72Z" fill="#D0CAE0"/>
  <rect x="0.506104" y="1.21997" width="23" height="23" rx="3.5" stroke="#D0CAE0"/>
</svg>
